<svg height="512pt" viewBox="0 0 512 512" width="512pt" xmlns="http://www.w3.org/2000/svg"><path d="m416 512h-320c-53.023438 0-96-42.976562-96-96v-320c0-53.023438 42.976562-96 96-96h320c53.023438 0 96 42.976562 96 96v320c0 53.023438-42.976562 96-96 96zm0 0" fill="#fff9dd"/><path d="m256 256c0 2.128906-.640625 4.273438-1.808594 5.871094l-53.328125 80c-1.917969 2.882812-5.121093 4.800781-8.847656 4.800781h-32c-5.871094 0-10.671875-4.800781-10.671875-10.671875 0-2.128906.640625-4.273438 1.808594-5.871094l49.375-74.128906-49.390625-74.128906c-1.167969-1.597656-1.808594-3.726563-1.808594-5.871094 0-5.871094 4.800781-10.671875 10.671875-10.671875h32c3.726562 0 6.929688 1.917969 8.847656 4.800781l53.328125 80c1.183594 1.597656 1.824219 3.742188 1.824219 5.871094zm0 0" fill="#ffe777"/><path d="m362.671875 256c0 2.128906-.640625 4.273438-1.808594 5.871094l-53.328125 80c-1.917968 2.882812-5.121094 4.800781-8.847656 4.800781h-32c-5.886719 0-10.6875-4.800781-10.6875-10.671875 0-2.128906.640625-4.273438 1.808594-5.871094l49.390625-74.128906-49.390625-74.128906c-1.167969-1.597656-1.808594-3.742188-1.808594-5.871094 0-5.871094 4.800781-10.671875 10.671875-10.671875h32c3.726563 0 6.929687 1.917969 8.847656 4.800781l53.328125 80c1.183594 1.597656 1.824219 3.742188 1.824219 5.871094zm0 0" fill="#ffd200"/></svg>