<svg id="Capa_1" enable-background="new 0 0 512 512" height="512" viewBox="0 0 512 512" width="512" xmlns="http://www.w3.org/2000/svg"><g><path d="m256 512c-24.813 0-45-20.187-45-45v-65h90v65c0 24.813-20.187 45-45 45z" fill="#265d77"/><path d="m256 512c24.813 0 45-20.187 45-45v-65h-45z" fill="#132f3b"/><path d="m256 110c-30.327 0-55-24.673-55-55s24.673-55 55-55 55 24.673 55 55-24.673 55-55 55zm0-80c-13.785 0-25 11.215-25 25s11.215 25 25 25 25-11.215 25-25-11.215-25-25-25z" fill="#265d77"/><path d="m281 55c0 13.785-11.215 25-25 25v30c30.327 0 55-24.673 55-55s-24.673-55-55-55v30c13.785 0 25 11.215 25 25z" fill="#132f3b"/><path d="m397.815 372h-283.63l21.105-184.323c7.029-61.386 58.923-107.677 120.71-107.677s113.681 46.291 120.71 107.677z" fill="#b7e4f8"/><path d="m376.71 187.677c-7.029-61.386-58.923-107.677-120.71-107.677v292h141.815z" fill="#6fc8f1"/><path d="m398 432h-284c-24.813 0-45-20.187-45-45s20.187-45 45-45h284c24.813 0 45 20.187 45 45s-20.187 45-45 45z" fill="#6fc8f1"/><path d="m256 432h142c24.813 0 45-20.187 45-45s-20.187-45-45-45h-142z" fill="#4bbaed"/></g></svg>