<svg xmlns="http://www.w3.org/2000/svg" xmlns:xlink="http://www.w3.org/1999/xlink" width="100" height="66" viewBox="0 0 100 66">
  <defs>
    <style>
      .cls-1 {
        fill: #fff;
        stroke: #707070;
      }

      .cls-2 {
        clip-path: url(#clip-path);
      }
    </style>
    <clipPath id="clip-path">
      <rect id="Rectangle_104" data-name="Rectangle 104" class="cls-1" width="100" height="66" transform="translate(343 503)"/>
    </clipPath>
  </defs>
  <g id="Mask_Group_21" data-name="Mask Group 21" class="cls-2" transform="translate(-343 -503)">
    <g id="doctor" transform="translate(360 503)">
      <g id="Group_89" data-name="Group 89">
        <g id="Group_88" data-name="Group 88">
          <path id="Path_116" data-name="Path 116" d="M26.8,20.666a.967.967,0,0,0-.967.967v1.033a.967.967,0,0,0,1.934,0V21.633A.967.967,0,0,0,26.8,20.666Z"/>
        </g>
      </g>
      <g id="Group_91" data-name="Group 91">
        <g id="Group_90" data-name="Group 90">
          <path id="Path_117" data-name="Path 117" d="M39.2,20.666a.967.967,0,0,0-.967.967v1.033a.967.967,0,1,0,1.934,0V21.633A.967.967,0,0,0,39.2,20.666Z"/>
        </g>
      </g>
      <g id="Group_93" data-name="Group 93">
        <g id="Group_92" data-name="Group 92">
          <path id="Path_118" data-name="Path 118" d="M36.788,28.188a.966.966,0,0,0-1.367-.009A3.581,3.581,0,0,1,33,28.933a3.581,3.581,0,0,1-2.421-.755.967.967,0,1,0-1.358,1.376A5.465,5.465,0,0,0,33,30.867a5.464,5.464,0,0,0,3.779-1.312A.967.967,0,0,0,36.788,28.188Z"/>
        </g>
      </g>
      <g id="Group_95" data-name="Group 95">
        <g id="Group_94" data-name="Group 94">
          <path id="Path_119" data-name="Path 119" d="M27.833,17.566H25.767a.967.967,0,1,0,0,1.934h2.067a.967.967,0,1,0,0-1.934Z"/>
        </g>
      </g>
      <g id="Group_97" data-name="Group 97">
        <g id="Group_96" data-name="Group 96">
          <path id="Path_120" data-name="Path 120" d="M40.233,17.566H38.167a.967.967,0,1,0,0,1.934h2.067a.967.967,0,0,0,0-1.934Z"/>
        </g>
      </g>
      <g id="Group_99" data-name="Group 99">
        <g id="Group_98" data-name="Group 98">
          <path id="Path_121" data-name="Path 121" d="M53.706,46.05l-6.969-2.142A2.217,2.217,0,0,0,45.51,41.79L41.2,39.636V36.563a14.421,14.421,0,0,0,6.061-9.829h.575a3.663,3.663,0,0,0,3.679-3.188,3.545,3.545,0,0,0-2.048-3.586V9.233A7.175,7.175,0,0,0,42.3,2.067h-.163A12.188,12.188,0,0,0,35,0,24.648,24.648,0,0,0,22.976,2.715a41.929,41.929,0,0,1-6.006,2.318.967.967,0,0,0-.621,1.3,8.772,8.772,0,0,0,1.576,2.291c-.481.592-1.392,2.107-1.392,5.086V20a3.526,3.526,0,0,0,1.483,6.73h.722A14.417,14.417,0,0,0,24.8,36.564v3.071L20.49,41.79a2.217,2.217,0,0,0-1.228,2.117L12.294,46.05A7.131,7.131,0,0,0,7.233,52.9V65.033a.967.967,0,0,0,1.934,0V52.9a5.207,5.207,0,0,1,3.7-5l7.248-2.229,1.279,1.706-1.454,1.454a3.029,3.029,0,0,0-.568,3.5l2.768,5.535H19.5v-1.1a.967.967,0,0,0-1.934,0v1.1h-4.2a.967.967,0,0,0-.967.967v6.2a.967.967,0,0,0,.967.967H23.7a.967.967,0,0,0,.967-.967v-2.1l1.268,2.537a.967.967,0,0,0,1.729-.865L21.1,51.466A1.1,1.1,0,0,1,21.3,50.2l2.047-2.047a.967.967,0,0,0,.09-1.264l-2.19-2.92a.3.3,0,0,1,.105-.446l3.808-1.9,2.688,9.217a.967.967,0,1,0,1.856-.541l-.424-1.453a11.312,11.312,0,0,0,7.432,0L33,61.58l-2.086-7.153a.967.967,0,1,0-1.856.541L32.072,65.3a.967.967,0,0,0,1.856,0l6.909-23.688,3.808,1.9a.3.3,0,0,1,.105.446l-2.19,2.92a.967.967,0,0,0,.09,1.264L44.7,50.2a1.1,1.1,0,0,1,.206,1.269L38.335,64.6a.967.967,0,1,0,1.73.865l6.567-13.134a3.03,3.03,0,0,0-.568-3.5L44.61,47.376l1.279-1.706L53.138,47.9a5.207,5.207,0,0,1,3.7,5V65.033a.967.967,0,0,0,1.934,0V52.9A7.131,7.131,0,0,0,53.706,46.05ZM22.733,64.066h-8.4V59.8h3.233v.067a.967.967,0,0,0,1.934,0V59.8h3.233v4.266Zm1.041-59.59A22.772,22.772,0,0,1,35,1.934c3.567,0,6.754,1.493,7.414,3.472a.967.967,0,0,0,1.834-.612,4.558,4.558,0,0,0-.2-.491,5.242,5.242,0,0,1,3.48,4.93v10.4h-1.1a1.1,1.1,0,0,1-1.1-1.1V17.5A12.317,12.317,0,0,0,41.95,9.583a.968.968,0,0,0-.975-.238c-5.367,1.695-12.934,3.123-18.505.3A10.4,10.4,0,0,1,18.7,6.52,47.55,47.55,0,0,0,23.775,4.476ZM39.267,40.1,37.42,46.426a9.38,9.38,0,0,1-8.84,0L26.734,40.1V37.7a14.379,14.379,0,0,0,12.533,0ZM33,37.2A12.48,12.48,0,0,1,20.534,24.733a.967.967,0,0,0-1.934,0V24.8h-.583a1.617,1.617,0,0,1-1.608-1.787,1.715,1.715,0,0,1,1.756-1.446h1.4A3.037,3.037,0,0,0,22.6,18.533V14.884a.967.967,0,0,0-1.934,0v3.649a1.1,1.1,0,0,1-1.1,1.1h-1.1V13.711a6.516,6.516,0,0,1,.884-3.765,13.289,13.289,0,0,0,2.094,1.35,18.048,18.048,0,0,0,7.751,1.88,36.59,36.59,0,0,0,11.761-1.8A10.189,10.189,0,0,1,43.4,17.5v1.033a3.037,3.037,0,0,0,3.033,3.033h1.55a1.617,1.617,0,0,1,1.608,1.787A1.715,1.715,0,0,1,47.836,24.8H47.4v-.056a.967.967,0,0,0-.966-.967h0a.967.967,0,0,0-.967.966A12.483,12.483,0,0,1,33,37.2Z"/>
        </g>
      </g>
      <g id="Group_101" data-name="Group 101">
        <g id="Group_100" data-name="Group 100">
          <path id="Path_122" data-name="Path 122" d="M52.633,58.383H51.017V56.766a.967.967,0,0,0-1.934,0v1.616H47.467a.967.967,0,0,0,0,1.934h1.617v1.616a.967.967,0,1,0,1.934,0V60.316h1.616a.967.967,0,1,0,0-1.934Z"/>
        </g>
      </g>
    </g>
  </g>
</svg>
