<svg xmlns="http://www.w3.org/2000/svg" xmlns:xlink="http://www.w3.org/1999/xlink" width="100" height="66" viewBox="0 0 100 66">
  <defs>
    <style>
      .cls-1 {
        fill: #fff;
        stroke: #707070;
      }

      .cls-2 {
        clip-path: url(#clip-path);
      }
    </style>
    <clipPath id="clip-path">
      <rect id="Rectangle_103" data-name="Rectangle 103" class="cls-1" width="100" height="66" transform="translate(343 578)"/>
    </clipPath>
  </defs>
  <g id="Mask_Group_22" data-name="Mask Group 22" class="cls-2" transform="translate(-343 -578)">
    <g id="doctor_1_" data-name="doctor (1)" transform="translate(358.115 576.116)">
      <path id="Path_123" data-name="Path 123" d="M34.861,38.729c-8.5-.277-10.543-7.558-10.979-9.908a3.691,3.691,0,0,1-2.068-1.313,4.155,4.155,0,0,1-.774-2.828,3.9,3.9,0,0,1,.92-3.033,2.853,2.853,0,0,1,.687-.519,15,15,0,0,1-2.235-8.518c.984-7.034,6.653-7.718,8.428-7.758a8.311,8.311,0,0,1,2.988-2.2A10.53,10.53,0,0,1,38.6,2.271c4.4,1.147,7.327,3.348,8.717,6.541,1.98,4.539.243,9.763-.754,12.109a2.888,2.888,0,0,1,1.03.591,3.782,3.782,0,0,1,1.052,3.169,4.148,4.148,0,0,1-.773,2.828A3.7,3.7,0,0,1,45.8,28.823C45.364,31.171,43.33,38.452,34.861,38.729ZM24.223,22.635a1.276,1.276,0,0,0-.911.324,2.247,2.247,0,0,0-.386,1.687.968.968,0,0,1-.007.189,2.328,2.328,0,0,0,.4,1.532,2.152,2.152,0,0,0,1.509.715.943.943,0,0,1,.829.856c.031.351.867,8.634,9.211,8.907,8.3-.273,9.137-8.556,9.168-8.909a.943.943,0,0,1,.829-.854,2.151,2.151,0,0,0,1.509-.715,2.333,2.333,0,0,0,.4-1.54.987.987,0,0,1-.007-.183,2.247,2.247,0,0,0-.425-1.731,1.43,1.43,0,0,0-1.024-.268.943.943,0,0,1-.995-1.376c.035-.066,3.488-6.621,1.269-11.715-1.149-2.632-3.658-4.47-7.459-5.462a8.635,8.635,0,0,0-5.537.283,6.341,6.341,0,0,0-2.54,1.987.934.934,0,0,1-.836.377c-.244-.02-6.017-.393-6.922,6.061h0S22.026,17.935,25,21.046a.943.943,0,0,1,.179,1.037.893.893,0,0,1-.893.557Z"/>
      <path id="Path_124" data-name="Path 124" d="M45.144,22.657a.943.943,0,0,1-.943-.9c-.011-.244-.3-5.94-4.556-6.488A14.356,14.356,0,0,1,28.7,12.095c-1.2.9-3.972,3.653-3.439,9.514a.943.943,0,0,1-1.874.171c-.782-8.6,4.741-11.585,4.975-11.707a.943.943,0,0,1,1.088.155,12.592,12.592,0,0,0,10.019,3.161,1.054,1.054,0,0,1,.261-.009c4.793.5,6.258,5.649,6.361,8.3a.943.943,0,0,1-.9.979Z"/>
      <path id="Path_125" data-name="Path 125" d="M61.368,67.884H8.4a.943.943,0,0,1-.943-.943V56.43A12.547,12.547,0,0,1,20,43.909h1.81a.943.943,0,1,1,0,1.886H20A10.66,10.66,0,0,0,9.344,56.43V66H60.425V56.43A10.648,10.648,0,0,0,49.789,45.794h-1.94a.943.943,0,1,1,0-1.886h1.94A12.54,12.54,0,0,1,62.311,56.43V66.941A.943.943,0,0,1,61.368,67.884Z"/>
      <path id="Path_126" data-name="Path 126" d="M38.036,67.884A.943.943,0,0,1,37.1,66.8l3.816-25.252a.943.943,0,0,1,1.2-.762l6.585,1.985a.943.943,0,0,1,.573,1.32l-2.617,5.252,1.518,1.7a.943.943,0,0,1,.094,1.123L38.837,67.437A.943.943,0,0,1,38.036,67.884Zm4.586-24.978L39.656,62.53l6.65-10.748-1.474-1.655a.943.943,0,0,1-.14-1.047l2.4-4.822Z"/>
      <path id="Path_127" data-name="Path 127" d="M31.625,67.884a.943.943,0,0,1-.8-.447L21.382,52.173a.943.943,0,0,1,.094-1.123l1.518-1.7-2.617-5.252a.943.943,0,0,1,.573-1.32l6.585-1.985a.943.943,0,0,1,1.2.762L32.555,66.8a.943.943,0,0,1-.93,1.08ZM23.355,51.778,30,62.527l-2.965-19.62-4.473,1.348,2.4,4.822a.943.943,0,0,1-.14,1.047Z"/>
      <path id="Path_128" data-name="Path 128" d="M34.9,50.3a51.114,51.114,0,0,1-6.1-.37.943.943,0,1,1,.224-1.872,47.535,47.535,0,0,0,11.6,0,.943.943,0,1,1,.236,1.871,47.613,47.613,0,0,1-5.964.37Z"/>
      <path id="Path_129" data-name="Path 129" d="M41.853,42.632a.943.943,0,0,1-.754-.382c-1.4-1.894-1.655-5.649-1.678-6.07a.943.943,0,0,1,.886-1,.953.953,0,0,1,1,.886c.058.992.406,3.834,1.311,5.058a.943.943,0,0,1-.754,1.5Z"/>
      <path id="Path_130" data-name="Path 130" d="M27.808,42.632a.943.943,0,0,1-.754-1.5c.907-1.226,1.255-4.067,1.312-5.058a.944.944,0,1,1,1.886.109c-.024.421-.283,4.176-1.678,6.07a.943.943,0,0,1-.766.382Z"/>
      <path id="Path_131" data-name="Path 131" d="M53.888,54.669a.943.943,0,0,1-.943-.915c-.176-6.14-2.511-8.072-2.533-8.09a.949.949,0,0,1-.164-1.32.937.937,0,0,1,1.306-.181c.124.094,3.071,2.383,3.277,9.537a.943.943,0,0,1-.915.969Z"/>
      <path id="Path_132" data-name="Path 132" d="M53.892,60.236a3.727,3.727,0,1,1,3.726-3.727,3.727,3.727,0,0,1-3.726,3.727Zm0-5.568a1.841,1.841,0,1,0,1.84,1.841,1.841,1.841,0,0,0-1.84-1.841Z"/>
      <path id="Path_133" data-name="Path 133" d="M15.163,54.669a.943.943,0,0,1-.943-.876c-.514-7.236,3.473-9.549,3.643-9.644a.943.943,0,1,1,.927,1.642c-.143.085-3.111,1.917-2.69,7.869a.943.943,0,0,1-.874,1.007Z"/>
      <path id="Path_134" data-name="Path 134" d="M13.255,62.218a.943.943,0,0,1-.754-.371,5.894,5.894,0,0,1-1-2.025,5.668,5.668,0,0,1,3.7-7.064,5.28,5.28,0,0,1,4.054.5A6.051,6.051,0,0,1,22.2,59.494a.943.943,0,1,1-1.86-.309,4.169,4.169,0,0,0-2-4.28,3.412,3.412,0,0,0-2.619-.333,3.785,3.785,0,0,0-2.4,4.748A4.023,4.023,0,0,0,14,60.705a.943.943,0,0,1-.75,1.513Z"/>
      <path id="Path_135" data-name="Path 135" d="M21.285,60.284a.752.752,0,0,1-.112-.006l-1.063-.125a.943.943,0,1,1,.223-1.873l1.063.126a.943.943,0,0,1-.11,1.879Z"/>
      <path id="Path_136" data-name="Path 136" d="M13.255,62.227a.943.943,0,0,1-.328-1.827l1.131-.418a.943.943,0,0,1,.66,1.768l-1.131.419a.943.943,0,0,1-.332.058Z"/>
    </g>
  </g>
</svg>
