<svg xmlns="http://www.w3.org/2000/svg" xmlns:xlink="http://www.w3.org/1999/xlink" width="100" height="66" viewBox="0 0 100 66">
  <defs>
    <style>
      .cls-1 {
        fill: #fff;
        stroke: #707070;
      }

      .cls-2 {
        clip-path: url(#clip-path);
      }
    </style>
    <clipPath id="clip-path">
      <rect id="Rectangle_105" data-name="Rectangle 105" class="cls-1" width="100" height="66" transform="translate(293 650)"/>
    </clipPath>
  </defs>
  <g id="Mask_Group_24" data-name="Mask Group 24" class="cls-2" transform="translate(-293 -650)">
    <g id="doctor_3_" data-name="doctor (3)" transform="translate(310 650)">
      <g id="Group_116" data-name="Group 116">
        <path id="Path_145" data-name="Path 145" d="M37.318,32.329a5.446,5.446,0,0,0,3.875-1.606.967.967,0,1,0-1.367-1.367,3.545,3.545,0,0,1-5.017,0,.967.967,0,1,0-1.367,1.367A5.445,5.445,0,0,0,37.318,32.329Z"/>
        <path id="Path_146" data-name="Path 146" d="M31.517,24.089a.967.967,0,0,0,.967-.967V20.355a.967.967,0,1,0-1.934,0v2.767A.967.967,0,0,0,31.517,24.089Z"/>
        <path id="Path_147" data-name="Path 147" d="M43.119,24.089a.967.967,0,0,0,.967-.967V20.355a.967.967,0,1,0-1.934,0v2.767A.967.967,0,0,0,43.119,24.089Z"/>
        <path id="Path_148" data-name="Path 148" d="M35.862,26.855h1.456a.967.967,0,0,0,0-1.934h-.1l1.015-2.951a.967.967,0,0,0-1.828-.629l-1.456,4.232a.967.967,0,0,0,.914,1.281Z"/>
        <path id="Path_149" data-name="Path 149" d="M60.263,56.4a.967.967,0,0,0,.967-.967V45.761a7.42,7.42,0,0,0-7.412-7.412H52.529a8.635,8.635,0,0,0-.258-8.633,4.841,4.841,0,0,0,3.739-4.707V23.569A4.824,4.824,0,0,0,54.3,19.886V12.939a11.62,11.62,0,0,0-14-11.372A12.2,12.2,0,0,0,34.3,0H32.572A12.252,12.252,0,0,0,20.334,12.238v7.648a4.824,4.824,0,0,0-1.707,3.682v1.439a4.839,4.839,0,0,0,4.834,4.834h1.47a11.841,11.841,0,0,0,3.024,4.4,7.438,7.438,0,0,0-5.264,4.11H20.818a7.368,7.368,0,0,0-1.756.212V32.742a1.612,1.612,0,0,0-1.547-1.608V29.391A1.613,1.613,0,0,0,15.9,27.779H15V18.691a.967.967,0,0,0-1.934,0v9.088h-.9a1.613,1.613,0,0,0-1.611,1.611v1.743a1.612,1.612,0,0,0-1.547,1.608v1.869H8.521A3.756,3.756,0,0,0,4.77,38.363v6.676a3.756,3.756,0,0,0,3.752,3.752h2.935v1.1a.967.967,0,0,0,1.934,0v-1.1h1.289v6.7H13.39V54.4a.967.967,0,0,0-1.934,0v1.1h-.709a1.613,1.613,0,0,0-1.611,1.611v2.063a1.613,1.613,0,0,0,1.611,1.611h2.659v2.965A2.259,2.259,0,0,0,15.662,66H58.974a2.259,2.259,0,0,0,2.256-2.256v-3.8a.967.967,0,0,0-1.934,0v3.8a.323.323,0,0,1-.322.322H15.662a.323.323,0,0,1-.322-.322V60.779h1.982a1.613,1.613,0,0,0,1.611-1.611V57.105a1.613,1.613,0,0,0-1.611-1.611h-.709v-6.7h2.9a.967.967,0,0,0,0-1.934h-.451V40.572a5.441,5.441,0,0,1,1.756-.29h1.267a7.418,7.418,0,0,0-.1,1.226v6.84a4.189,4.189,0,1,0,1.934,0v-6.84a5.474,5.474,0,0,1,.14-1.226h6l5.866,10.154a1.611,1.611,0,0,0,2.79,0l5.866-10.154h6.058a5.474,5.474,0,0,1,.14,1.226v6.418a4.842,4.842,0,0,0-3.867,4.737v7.93a.967.967,0,0,0,.967.967H49.67a.967.967,0,0,0,0-1.934h-.827V52.662a2.9,2.9,0,0,1,5.8,0v6.964h-.827a.967.967,0,1,0,0,1.934h1.793a.967.967,0,0,0,.967-.967v-7.93a4.842,4.842,0,0,0-3.867-4.737V41.508a7.418,7.418,0,0,0-.1-1.226h1.211A5.485,5.485,0,0,1,59.3,45.761V55.43a.966.966,0,0,0,.967.967ZM12.488,29.713h3.094v1.418H12.488Zm.395,9.963a.653.653,0,0,1,0,1.05,1.217,1.217,0,0,0,0,1.948.653.653,0,0,1,0,1.052,1.217,1.217,0,0,0,0,1.947.645.645,0,0,1,.266.526.659.659,0,0,1-.658.658H8.522A1.82,1.82,0,0,1,6.7,45.039V38.363a1.82,1.82,0,0,1,1.818-1.818h3.969a.658.658,0,0,1,.658.658.645.645,0,0,1-.267.526,1.217,1.217,0,0,0,0,1.947ZM17,57.428v1.418H11.07V57.428Zm.129-10.57H14.994A2.568,2.568,0,0,0,14.6,44.7a2.549,2.549,0,0,0,.415-.937h2.109Zm0-5.027H14.689c-.027-.044-.055-.087-.085-.129a2.593,2.593,0,0,0,0-3,2.566,2.566,0,0,0,.477-1.5,2.594,2.594,0,0,0-2.591-2.591h-1.55V33.064h6.188ZM25.2,52.423a2.256,2.256,0,1,1-2.256-2.256A2.259,2.259,0,0,1,25.2,52.423ZM23.461,27.908a2.9,2.9,0,0,1-2.9-2.9V23.569a2.9,2.9,0,0,1,2.9-2.9h.659v4.876a11.805,11.805,0,0,0,.238,2.364Zm.659-10.842v1.668h-.659a4.829,4.829,0,0,0-1.193.149V12.238a10.316,10.316,0,0,1,10.3-10.3H34.3a10.252,10.252,0,0,1,8.111,3.948.967.967,0,1,0,1.521-1.194A12.442,12.442,0,0,0,42.61,3.256h.074a9.7,9.7,0,0,1,9.684,9.684v5.945a4.824,4.824,0,0,0-1.193-.149h-.659V17.066a6.134,6.134,0,0,0-4.017-5.75,12.24,12.24,0,0,0-.379-2.245.967.967,0,1,0-1.868.5,10.293,10.293,0,0,1,.268,1.376c-.042,0-.084,0-.126,0H30.243a6.13,6.13,0,0,0-6.123,6.123Zm1.934,8.478V17.066a4.194,4.194,0,0,1,4.189-4.189h14.15a4.194,4.194,0,0,1,4.189,4.189v8.478a9.872,9.872,0,0,1-9.861,9.861H35.915A9.872,9.872,0,0,1,26.053,25.545Zm-1.131,12.8a5.474,5.474,0,0,1,4.472-2.319h1.126a11.706,11.706,0,0,0,2.351.91v1.409Zm12.4,10.637-1.908-3.3-.9-1.56a14,14,0,0,0,5.618,0Zm4.2-7.277a11.91,11.91,0,0,1-8.409,0l-.824-1.426h1.548a.967.967,0,0,0,.967-.967v-2.03c.366.034.736.054,1.11.054h2.807c.375,0,.745-.02,1.11-.054v2.03a.967.967,0,0,0,.967.967h1.548Zm2.5-3.359H41.765V36.94a11.709,11.709,0,0,0,2.351-.91H45.3a5.475,5.475,0,0,1,4.472,2.319Zm7.067-1.46a7.421,7.421,0,0,0-4.4-2.658,11.841,11.841,0,0,0,3.015-4.388h.263a6.7,6.7,0,0,1,1.12,7.046Zm.087-8.98h-.9a11.805,11.805,0,0,0,.238-2.364V20.668h.659a2.9,2.9,0,0,1,2.9,2.9v1.439A2.9,2.9,0,0,1,51.176,27.908Z"/>
      </g>
    </g>
  </g>
</svg>
