<svg xmlns="http://www.w3.org/2000/svg" xmlns:xlink="http://www.w3.org/1999/xlink" width="100" height="66" viewBox="0 0 100 66">
  <defs>
    <style>
      .cls-1 {
        fill: #fff;
      }

      .cls-2 {
        clip-path: url(#clip-path);
      }
    </style>
    <clipPath id="clip-path">
      <rect id="Rectangle_31" data-name="Rectangle 31" class="cls-1" width="100" height="66" transform="translate(59 639)"/>
    </clipPath>
  </defs>
  <g id="Mask_Group_7" data-name="Mask Group 7" class="cls-2" transform="translate(-59 -639)">
    <g id="dentist" transform="translate(75.634 638.634)">
      <g id="Group_27" data-name="Group 27">
        <g id="Group_26" data-name="Group 26">
          <path id="Path_43" data-name="Path 43" d="M17.939,18.518a1.067,1.067,0,0,0-1.064,1.064v.585a1.257,1.257,0,0,1-1.223,1.277h-.013a1.3,1.3,0,0,1-1.29-1.277v-.585a1.064,1.064,0,1,0-2.128,0v.585a3.428,3.428,0,0,0,1.024,2.407,3.341,3.341,0,0,0,2.38,1A3.38,3.38,0,0,0,19,20.167v-.585A1.067,1.067,0,0,0,17.939,18.518Z"/>
        </g>
      </g>
      <g id="Group_29" data-name="Group 29">
        <g id="Group_28" data-name="Group 28">
          <path id="Path_44" data-name="Path 44" d="M29.642,18.531A1.067,1.067,0,0,0,28.578,19.6v.585a1.263,1.263,0,1,1-2.527,0V19.6a1.064,1.064,0,1,0-2.128,0v.585a3.391,3.391,0,1,0,6.782,0V19.6A1.067,1.067,0,0,0,29.642,18.531Z"/>
        </g>
      </g>
      <g id="Group_31" data-name="Group 31">
        <g id="Group_30" data-name="Group 30">
          <path id="Path_45" data-name="Path 45" d="M51.146,35.208a15.494,15.494,0,0,0-12.421,6.157,10.318,10.318,0,0,0-5.559-1.636H27.514V37.867a14.732,14.732,0,0,0,6.051-4.987,14.537,14.537,0,0,0,2.646-7.54,3.784,3.784,0,0,0,.08-7.367V11.8h2.181a1.067,1.067,0,0,0,1.064-1.064A10.4,10.4,0,0,0,29.163.366H19.588a5.639,5.639,0,0,0-4.043,1.662A4.955,4.955,0,0,0,14.774,3c-4.748.226-7.208,3.8-7.926,7.181v.027a4.864,4.864,0,0,0-.066.758V17.92A3.6,3.6,0,0,0,4.761,18.97a3.8,3.8,0,0,0,2.048,6.436,14.76,14.76,0,0,0,9.282,12.7v1.622H10.439A10.5,10.5,0,0,0,0,50.195V63.214a1.137,1.137,0,0,0,1.09,1.117H42.874a1.047,1.047,0,0,0,.4-.106,15.578,15.578,0,1,0,7.873-29.017ZM6.769,23.186a1.567,1.567,0,0,1-1.011-1.529,1.671,1.671,0,0,1,.492-1.184,1.4,1.4,0,0,1,.519-.359v3.072Zm29.788-2.7a1.631,1.631,0,0,1,.505,1.17,1.832,1.832,0,0,1-.785,1.4V20.26C36.291,20.313,36.477,20.393,36.557,20.486ZM16.357,4.5a3.393,3.393,0,0,1,.692-.971,3.559,3.559,0,0,1,2.54-1.037h9.575a8.173,8.173,0,0,1,8.165,7.181H19.588c-.04,0-.066-.013-.106-.013s-.066-.013-.106-.013A3.588,3.588,0,0,1,16.357,4.5ZM8.9,10.965a2.808,2.808,0,0,1,.027-.346,8.233,8.233,0,0,1,1.489-3.258,5.6,5.6,0,0,1,3.524-2.128,5.7,5.7,0,0,0,3.471,6.117A11.655,11.655,0,0,1,8.9,15.233V10.965Zm3.7,22.355a12.531,12.531,0,0,1-3.7-8.937V17.388A13.923,13.923,0,0,0,19.828,11.8H34.164v12.58a12.649,12.649,0,0,1-21.57,8.936ZM20.466,62.2H2.114V50.195A8.307,8.307,0,0,1,9.96,41.923v2.859a4.918,4.918,0,0,0-2.593,1.423,5.207,5.207,0,0,0-1.529,3.724v5.865a1.046,1.046,0,0,0,1.011,1.09H8.524a1.064,1.064,0,0,0,0-2.128H7.966V49.929a3.082,3.082,0,0,1,.891-2.221A3.023,3.023,0,0,1,11,46.777h.04a3.2,3.2,0,0,1,3.178,3.152v4.827H13.139a1.064,1.064,0,0,0,0,2.128h2.1a1.125,1.125,0,0,0,1.1-1.09V49.929a5.293,5.293,0,0,0-4.255-5.16V41.857h4.588l3.79,4.1V62.2ZM18.205,40.434V38.758a14.563,14.563,0,0,0,7.181-.133v1.769L21.61,44.011ZM22.594,62.2h0V45.979l4.269-4.122h1.981v5.612a4.262,4.262,0,1,0,4.069,1.13,4.589,4.589,0,0,0-1.955-1.13V41.857h2.194a8.212,8.212,0,0,1,4.4,1.29A15.7,15.7,0,0,0,40.52,62.2H22.594Zm7.261-12.74a2.161,2.161,0,1,1-1.529.625A2.185,2.185,0,0,1,29.855,49.463ZM51.146,64.225a13.437,13.437,0,1,1,11.25-6.1A13.439,13.439,0,0,1,51.146,64.225Z"/>
        </g>
      </g>
      <g id="Group_33" data-name="Group 33">
        <g id="Group_32" data-name="Group 32">
          <path id="Path_46" data-name="Path 46" d="M56.292,42.242a4.873,4.873,0,0,0-.984-.027,12.85,12.85,0,0,0-2.553.452,1.066,1.066,0,0,0,.545,2.061,11.942,11.942,0,0,1,2.168-.386,3.186,3.186,0,0,1,3.418,2.926,2.87,2.87,0,0,1-.013.585,27.776,27.776,0,0,1-3.737,10.812l-2.168-3.99a1.594,1.594,0,0,0-1.423-.851,1.611,1.611,0,0,0-1.436.891L48.167,58.6a27.789,27.789,0,0,1-3.71-10.745A3.2,3.2,0,0,1,47.3,44.344a2.278,2.278,0,0,1,.426-.013c.2.226.386.465.572.7,1,1.33,2.859,3.79,6.436,3.338a1.059,1.059,0,0,0-.266-2.1c-2.354.293-3.537-1.263-4.468-2.513-.6-.8-1.117-1.476-1.942-1.543a5.319,5.319,0,0,0-5.718,4.894,4.868,4.868,0,0,0,.013.984,30.291,30.291,0,0,0,4.482,12.434,1.608,1.608,0,0,0,1.45.771,1.59,1.59,0,0,0,1.356-.891l1.915-3.843,2.128,3.91a1.615,1.615,0,0,0,1.37.851h.053a1.629,1.629,0,0,0,1.383-.771A30.51,30.51,0,0,0,61,48.094,5.314,5.314,0,0,0,56.292,42.242Z"/>
        </g>
      </g>
    </g>
  </g>
</svg>
