<svg xmlns="http://www.w3.org/2000/svg" xmlns:xlink="http://www.w3.org/1999/xlink" width="100" height="66" viewBox="0 0 100 66">
  <defs>
    <style>
      .cls-1 {
        fill: #fff;
        opacity: 0.66;
      }

      .cls-2 {
        clip-path: url(#clip-path);
      }
    </style>
    <clipPath id="clip-path">
      <rect id="Rectangle_28" data-name="Rectangle 28" class="cls-1" width="100" height="66" transform="translate(255 300)"/>
    </clipPath>
  </defs>
  <g id="Mask_Group_5" data-name="Mask Group 5" class="cls-2" transform="translate(-255 -300)">
    <g id="otolaryngologist" transform="translate(271.981 299.981)">
      <path id="Path_34" data-name="Path 34" d="M60.2,36.937a.968.968,0,0,0-1.251,1.477,14.508,14.508,0,1,1-3.259-2.088.968.968,0,0,0,.818-1.754,16.353,16.353,0,0,0-6.962-1.539,16.522,16.522,0,0,0-15.84,11.9l-2.162-.882v-3.76a12.508,12.508,0,0,0,5.225-10.152v-1.2a4.444,4.444,0,0,0,3.072-7.406l.2-9.034a12.229,12.229,0,0,0-1.221-5.609.968.968,0,1,0-1.741.846,10.284,10.284,0,0,1,1.027,4.718l-.176,7.825a4.419,4.419,0,0,0-1.164-.222V18.877a3.272,3.272,0,0,0-.79-2.131,5.329,5.329,0,0,0-4.045-1.857H24.9a5.769,5.769,0,0,1-3.909-1.521L17.6,10.262a1.258,1.258,0,0,0-1.685-.016l-.806.71a9.426,9.426,0,0,0-3.192,7.068v2.027a4.426,4.426,0,0,0-.861.131l-.307-8.052a5.313,5.313,0,0,1,4.957-5.54l1.6-.113a2.652,2.652,0,0,0,1.263-.426l3.688-2.415A10.218,10.218,0,0,1,34.841,4.7a.968.968,0,0,0,1.317-1.418A12.15,12.15,0,0,0,21.2,2.018L17.513,4.433a.713.713,0,0,1-.339.114l-1.6.113A7.273,7.273,0,0,0,8.82,12.207l.343,9a4.445,4.445,0,0,0,2.758,7.723v.5a13.555,13.555,0,0,0,.378,3.177.968.968,0,0,0,1.881-.454,11.62,11.62,0,0,1-.324-2.723V18.024a7.49,7.49,0,0,1,2.536-5.616l.35-.309,2.939,2.7a7.7,7.7,0,0,0,5.217,2.03h7.034a3.4,3.4,0,0,1,2.577,1.183,1.335,1.335,0,0,1,.323.87V30.136A10.591,10.591,0,0,1,21.5,40.334,11.665,11.665,0,0,1,15.7,35.7a.968.968,0,1,0-1.628,1.046A13.564,13.564,0,0,0,17.143,40.1v2.163a5.2,5.2,0,0,0-3.929,3.385L9.729,47.072A15.578,15.578,0,0,0,0,61.55v3.477a.968.968,0,0,0,1.935,0V61.55A13.65,13.65,0,0,1,10.46,48.864l2.462-1v6.077a4.036,4.036,0,1,0,1.935,0s.005-6.775.014-6.873l2.88-1.175q.243.2.495.387V65.026a.968.968,0,0,0,1.935,0V47.4a10.323,10.323,0,0,0,8.976-.319V65.027a.968.968,0,0,0,1.935,0V45.954l2.179.889A16.493,16.493,0,1,0,60.2,36.937ZM39.041,24.492a2.515,2.515,0,0,1-2.273,2.5v-5A2.515,2.515,0,0,1,39.041,24.492Zm-29.392,0a2.515,2.515,0,0,1,2.273-2.5v5A2.515,2.515,0,0,1,9.649,24.492Zm6.342,33.363a2.1,2.1,0,1,1-2.1-2.1A2.1,2.1,0,0,1,15.991,57.855Zm3.088-13.381V41.363a13.385,13.385,0,0,0,1.8.806c.025.009.05.017.076.024a12.573,12.573,0,0,0,7.5-.293c.394-.14.776-.3,1.149-.476v3.05A8.373,8.373,0,0,1,19.078,44.474Z"/>
      <path id="Path_35" data-name="Path 35" d="M27.684,27.083h3.692a2.239,2.239,0,0,0,2.237-2.237V22.375a2.239,2.239,0,0,0-2.237-2.237H27.684a2.237,2.237,0,0,0-2.013,1.269H23.13a2.237,2.237,0,0,0-2.013-1.269H17.425a2.239,2.239,0,0,0-2.237,2.237v2.472a2.239,2.239,0,0,0,2.237,2.237h3.692a2.239,2.239,0,0,0,2.237-2.237v-1.5h2.094v1.5a2.239,2.239,0,0,0,2.237,2.237Zm-.3-4.708a.3.3,0,0,1,.3-.3h3.692a.3.3,0,0,1,.3.3v2.472a.3.3,0,0,1-.3.3H27.684a.3.3,0,0,1-.3-.3Zm-5.965,2.472a.3.3,0,0,1-.3.3H17.425a.3.3,0,0,1-.3-.3V22.375a.3.3,0,0,1,.3-.3h3.692a.3.3,0,0,1,.3.3Z"/>
      <path id="Path_36" data-name="Path 36" d="M51.08,37.279a7.54,7.54,0,0,0-7.532,7.532V57.939a4.312,4.312,0,0,0,8.623,0V57.6a.5.5,0,0,1,.15-.354l4-3.881a7.572,7.572,0,0,0,2.289-5.407V44.811a7.54,7.54,0,0,0-7.532-7.532Zm5.6,10.676a5.627,5.627,0,0,1-1.7,4.018l-4,3.881a2.441,2.441,0,0,0-.738,1.743v.343a2.376,2.376,0,0,1-4.753,0V44.811a5.6,5.6,0,0,1,11.193,0v3.144Z"/>
      <path id="Path_37" data-name="Path 37" d="M51.08,41.394a3.421,3.421,0,0,0-3.417,3.417.968.968,0,1,0,1.935,0,1.482,1.482,0,1,1,2.964,0v3.144a1.49,1.49,0,0,1-.45,1.064l-4,3.88q-.093.09-.182.183a.968.968,0,0,0-.266.667v1.7a.968.968,0,1,0,1.935,0v-1.3l3.861-3.744A3.436,3.436,0,0,0,54.5,47.955V44.811a3.421,3.421,0,0,0-3.417-3.417Z"/>
      <path id="Path_38" data-name="Path 38" d="M48.63,50.238a.968.968,0,0,0,.968-.968v-.324l.066-.066a.968.968,0,1,0-1.369-1.368l-.349.349a.968.968,0,0,0-.283.684v.725a.967.967,0,0,0,.968.967Z"/>
    </g>
  </g>
</svg>
