<svg xmlns="http://www.w3.org/2000/svg" xmlns:xlink="http://www.w3.org/1999/xlink" width="32" height="32" viewBox="0 0 32 32">
  <defs>
    <style>
      .cls-1 {
        fill: #fff;
        stroke: #707070;
      }

      .cls-2 {
        clip-path: url(#clip-path);
      }
    </style>
    <clipPath id="clip-path">
      <rect id="Rectangle_87" data-name="Rectangle 87" class="cls-1" width="32" height="32"/>
    </clipPath>
  </defs>
  <g id="Mask_Group_14" data-name="Mask Group 14" class="cls-2">
    <g id="stethoscope" transform="translate(-0.829 0.767)">
      <g id="Group_61" data-name="Group 61">
        <g id="Group_60" data-name="Group 60">
          <path id="Path_87" data-name="Path 87" d="M31.961,17.838A3.733,3.733,0,0,0,28.8,14.677v-.97a4.707,4.707,0,0,0-4.533-4.853,4.725,4.725,0,0,0-4.533,4.708h.031l-.031.005v10.51a5.864,5.864,0,0,1-5.6,6.088,5.867,5.867,0,0,1-5.6-6.088v-.91c.773,0,1.6-.561,1.6-2.133V19.693A7.563,7.563,0,0,0,16,12.546V11.434H14.933l-.022-6.941a2.669,2.669,0,0,0-2.194-2.611A1.591,1.591,0,1,0,12.68,2.97,1.6,1.6,0,0,1,13.842,4.5l.024,6.938H12.8v1.127a4.241,4.241,0,0,1-3.07,3.979,4.85,4.85,0,0,1-2.933,0,4.239,4.239,0,0,1-3.063-3.979V11.434h-1.6V4.5A1.6,1.6,0,0,1,3.317,2.963,1.607,1.607,0,1,0,3.284,1.88,2.667,2.667,0,0,0,1.067,4.5v6.933H0v1.109a7.563,7.563,0,0,0,5.867,7.149v1.341c0,1.573.827,2.133,1.6,2.133v.91a6.931,6.931,0,0,0,6.667,7.155A6.933,6.933,0,0,0,20.8,24.078V13.593a3.65,3.65,0,0,1,3.467-3.671,3.641,3.641,0,0,1,3.467,3.787v.968a3.733,3.733,0,1,0,4.228,3.162ZM11.2,2.9a.533.533,0,1,1,.533-.533A.533.533,0,0,1,11.2,2.9ZM4.8,1.834a.533.533,0,1,1-.533.533A.533.533,0,0,1,4.8,1.834ZM1.067,12.543V12.5h1.6v.061a5.3,5.3,0,0,0,3.807,4.994,5.935,5.935,0,0,0,3.583,0,5.3,5.3,0,0,0,3.81-4.994V12.5h1.067v.043a6.538,6.538,0,0,1-5.44,6.209,7.608,7.608,0,0,1-2.25.11,6.966,6.966,0,0,1-.737-.111A6.536,6.536,0,0,1,1.067,12.543Zm6.4,9.557c-.48,0-.533-.747-.533-1.067V19.9c.043.005.086.007.13.012l.16.015c.252.022.507.037.763.038h.027c.256,0,.51-.015.761-.038l.165-.015c.042,0,.086-.006.128-.012v1.132c0,.32-.053,1.067-.533,1.067Zm20.8-1.067a2.667,2.667,0,1,1,2.667-2.667A2.667,2.667,0,0,1,28.266,21.034Z" transform="translate(0 -0.767)"/>
        </g>
      </g>
      <g id="Group_63" data-name="Group 63" transform="translate(26.666 16)">
        <g id="Group_62" data-name="Group 62">
          <path id="Path_88" data-name="Path 88" d="M28.266,16.767a1.6,1.6,0,1,0,1.6,1.6A1.6,1.6,0,0,0,28.266,16.767Zm0,2.133a.533.533,0,1,1,.533-.533A.533.533,0,0,1,28.266,18.9Z" transform="translate(-26.666 -16.767)"/>
        </g>
      </g>
    </g>
  </g>
</svg>
