<svg xmlns="http://www.w3.org/2000/svg" xmlns:xlink="http://www.w3.org/1999/xlink" width="189" height="277.001" viewBox="0 0 189 277.001">
  <defs>
    <style>
      .cls-1 {
        fill: #fff;
      }

      .cls-2 {
        fill: none;
        stroke: rgba(112,112,112,0.5);
        stroke-linecap: round;
        stroke-width: 3px;
      }

      .cls-3 {
        filter: url(#Subtraction_44);
      }

      .cls-4 {
        filter: url(#Subtraction_38);
      }
    </style>
    <filter id="Subtraction_38" x="0" y="42" width="189" height="235.001" filterUnits="userSpaceOnUse">
      <feOffset dy="3" input="SourceAlpha"/>
      <feGaussianBlur stdDeviation="3" result="blur"/>
      <feFlood flood-opacity="0.161"/>
      <feComposite operator="in" in2="blur"/>
      <feComposite in="SourceGraphic"/>
    </filter>
    <filter id="Subtraction_44" x="0" y="0" width="188.999" height="60.001" filterUnits="userSpaceOnUse">
      <feOffset dy="3" input="SourceAlpha"/>
      <feGaussianBlur stdDeviation="3" result="blur-2"/>
      <feFlood flood-opacity="0.161"/>
      <feComposite operator="in" in2="blur-2"/>
      <feComposite in="SourceGraphic"/>
    </filter>
  </defs>
  <g id="referral_background" data-name="referral background" transform="translate(-273.5 -76.5)">
    <g id="Group_42" data-name="Group 42">
      <g class="cls-4" transform="matrix(1, 0, 0, 1, 273.5, 76.5)">
        <path id="Subtraction_38-2" data-name="Subtraction 38" class="cls-1" d="M64.006,217H0V23.715l8.443-8.089L24.751,0H146.021l16.308,15.626L171,23.934V217H106.993a21.5,21.5,0,0,0-42.988,0Z" transform="translate(9 48)"/>
      </g>
      <g class="cls-3" transform="matrix(1, 0, 0, 1, 273.5, 76.5)">
        <path id="Subtraction_44-2" data-name="Subtraction 44" class="cls-1" d="M146.75,62.5H24.248L7.775,46.875,0,39.5v-19H64a19.192,19.192,0,0,0,6.3,14.135A22.191,22.191,0,0,0,85.5,40.5c11.855,0,21.5-8.972,21.5-20h64v19l-7.776,7.375L146.75,62.5Z" transform="translate(9 -14.5)"/>
      </g>
    </g>
    <line id="Line_18" data-name="Line 18" class="cls-2" x2="17" transform="translate(309.5 124.5)"/>
    <line id="Line_19" data-name="Line 19" class="cls-2" x2="17" transform="translate(334.238 124.5)"/>
    <line id="Line_20" data-name="Line 20" class="cls-2" x2="17" transform="translate(358.977 124.5)"/>
    <line id="Line_21" data-name="Line 21" class="cls-2" x2="17" transform="translate(383.715 124.5)"/>
    <line id="Line_22" data-name="Line 22" class="cls-2" x2="17" transform="translate(408.454 124.5)"/>
  </g>
</svg>
