<svg xmlns="http://www.w3.org/2000/svg" xmlns:xlink="http://www.w3.org/1999/xlink" width="100" height="66" viewBox="0 0 100 66">
  <defs>
    <style>
      .cls-1 {
        fill: #fff;
      }

      .cls-2 {
        clip-path: url(#clip-path);
      }
    </style>
    <clipPath id="clip-path">
      <rect id="Rectangle_32" data-name="Rectangle 32" class="cls-1" width="100" height="66" transform="translate(255 639)"/>
    </clipPath>
  </defs>
  <g id="Mask_Group_9" data-name="Mask Group 9" class="cls-2" transform="translate(-255 -639)">
    <path id="surgeon" d="M49.833,41.228a26.431,26.431,0,0,0-3.7-.535l-5.513-2.757a1.319,1.319,0,0,1-.734-1.187V31.925a10.313,10.313,0,0,0,5.335-7.073,5.066,5.066,0,0,0,.211-9.991V12.468a.972.972,0,1,0-1.943,0v.424H21.658V7.107a5.169,5.169,0,0,1,5.163-5.163h11.5a5.169,5.169,0,0,1,5.163,5.163v.957a.972.972,0,1,0,1.943,0V7.107A7.115,7.115,0,0,0,38.32,0h-11.5a7.115,7.115,0,0,0-7.106,7.106v7.766a5.066,5.066,0,0,0,.209,9.972,10.368,10.368,0,0,0,5.391,7.112v4.792a1.321,1.321,0,0,1-.735,1.188l-5.593,2.8A26.187,26.187,0,0,0,15,41.61,14.535,14.535,0,0,0,5.573,55.2v8.116A2.686,2.686,0,0,0,8.256,66H12.4a.972.972,0,0,0,0-1.943H8.256a.741.741,0,0,1-.74-.74V55.2a12.581,12.581,0,0,1,6.92-11.225v7.994h-.469a3.564,3.564,0,0,0-3.56,3.56v3.232A2.137,2.137,0,0,0,12.542,60.9h.851a.972.972,0,1,0,0-1.943h-.851a.192.192,0,0,1-.191-.191V55.531a1.619,1.619,0,0,1,1.617-1.617h2.88a1.619,1.619,0,0,1,1.617,1.617v3.232a.192.192,0,0,1-.191.191h-.851a.972.972,0,1,0,0,1.943h.851a2.137,2.137,0,0,0,2.134-2.134V55.531a3.564,3.564,0,0,0-3.56-3.56h-.469V43.191a12.526,12.526,0,0,1,3.7-.557h.891c4.015,3.216,7.842,4.825,11.61,4.825s7.475-1.609,11.25-4.825h2.082a12.562,12.562,0,0,1,2.63.278v8.9a4.463,4.463,0,1,0,1.943,0V43.5A12.588,12.588,0,0,1,58.484,55.2v8.116a.741.741,0,0,1-.74.74H16.808a.972.972,0,1,0,0,1.943H57.745a2.686,2.686,0,0,0,2.683-2.683V55.2A14.537,14.537,0,0,0,49.833,41.228Zm2.205,14.937a2.52,2.52,0,1,1-2.52-2.52A2.523,2.523,0,0,1,52.038,56.165ZM47.607,19.839a3.13,3.13,0,0,1-2.181,2.978c0-.013,0-.025,0-.038V16.862A3.129,3.129,0,0,1,47.607,19.839Zm-30.019,0a3.133,3.133,0,0,1,2.127-2.958v5.9c0,.007,0,.013,0,.02A3.129,3.129,0,0,1,17.587,19.839Zm4.134,3.976c-.042-.344-.064-8.98-.064-8.98H43.484s-.021,8.636-.064,8.98a8.377,8.377,0,0,1-8.311,7.34H30.034a8.312,8.312,0,0,1-3.358-.7,8.4,8.4,0,0,1-4.954-6.64Zm.643,17.443-.016-.033,3.1-1.549a3.254,3.254,0,0,0,1.809-2.926V32.718a10.281,10.281,0,0,0,2.776.381h5.075a10.3,10.3,0,0,0,2.828-.395V36.75a3.251,3.251,0,0,0,1.809,2.925l2.8,1.4a.973.973,0,0,0-.121.205c-6.694,5.626-12.919,5.618-20.061-.023Z" transform="translate(272 639)"/>
  </g>
</svg>
