<svg xmlns="http://www.w3.org/2000/svg" width="100" height="100" viewBox="0 0 100 100">
  <g id="logo" transform="translate(0 0)">
    <path id="Path_144" data-name="Path 144" d="M95.4,29.748H79.748a1.465,1.465,0,1,0,0,2.93H95.4a1.668,1.668,0,0,1,1.666,1.666V65.657A1.668,1.668,0,0,1,95.4,67.323H68.788a1.465,1.465,0,0,0-1.465,1.465V95.4a1.668,1.668,0,0,1-1.666,1.666H51.465V51.489A24.35,24.35,0,0,0,68,44.051a24,24,0,0,0,7.412-18.083,1.465,1.465,0,0,0-1.38-1.38A24.012,24.012,0,0,0,55.95,32a24.012,24.012,0,0,0-7.414,18.028V66.637l-16.2-16.2a1.465,1.465,0,0,0-2.071,2.071l7.975,7.975a19.84,19.84,0,0,1-10.229-5.532,19.228,19.228,0,0,1-5.8-12.595,19.231,19.231,0,0,1,12.595,5.8,20.948,20.948,0,0,1,3.23,4.152,1.465,1.465,0,0,0,2.523-1.489,23.864,23.864,0,0,0-3.681-4.734,21.5,21.5,0,0,0-16.2-6.636,1.465,1.465,0,0,0-1.38,1.38,21.5,21.5,0,0,0,6.636,16.2,21.727,21.727,0,0,0,15.17,6.665c.11,0,.221,0,.331,0L46.652,68.9a6.469,6.469,0,0,1,1.884,4.042V97.071H34.344A1.668,1.668,0,0,1,32.677,95.4V68.788a1.465,1.465,0,0,0-1.465-1.465H4.6A1.668,1.668,0,0,1,2.93,65.657V34.344A1.668,1.668,0,0,1,4.6,32.677H31.212a1.465,1.465,0,0,0,1.465-1.465V4.6A1.668,1.668,0,0,1,34.343,2.93H65.656A1.668,1.668,0,0,1,67.323,4.6V20.252a1.465,1.465,0,0,0,2.93,0V4.6a4.6,4.6,0,0,0-4.6-4.6H34.344a4.6,4.6,0,0,0-4.6,4.6V29.747H4.6a4.6,4.6,0,0,0-4.6,4.6V65.657a4.6,4.6,0,0,0,4.6,4.6H29.747V95.4a4.6,4.6,0,0,0,4.6,4.6H65.656a4.6,4.6,0,0,0,4.6-4.6V70.253H95.4a4.6,4.6,0,0,0,4.6-4.6V34.344a4.6,4.6,0,0,0-4.6-4.6ZM58.021,34.071a21.764,21.764,0,0,1,14.488-6.58,21.764,21.764,0,0,1-6.58,14.488,22.361,22.361,0,0,1-12.212,6.376L62,40.076A1.465,1.465,0,0,0,59.924,38l-8.278,8.278a22.36,22.36,0,0,1,6.376-12.212Z"/>
  </g>
</svg>
