<svg xmlns="http://www.w3.org/2000/svg" xmlns:xlink="http://www.w3.org/1999/xlink" width="473" height="318" viewBox="0 0 473 318">
  <defs>
    <style>
      .cls-1, .cls-2, .cls-3 {
        fill: #fff;
      }

      .cls-2 {
        opacity: 0.66;
      }

      .cls-3 {
        stroke: #707070;
      }

      .cls-4 {
        clip-path: url(#clip-path);
      }

      .cls-5 {
        clip-path: url(#clip-path-2);
      }

      .cls-6 {
        clip-path: url(#clip-path-3);
      }

      .cls-7 {
        clip-path: url(#clip-path-4);
      }

      .cls-8 {
        clip-path: url(#clip-path-5);
      }

      .cls-9 {
        clip-path: url(#clip-path-6);
      }

      .cls-10 {
        clip-path: url(#clip-path-7);
      }

      .cls-11 {
        clip-path: url(#clip-path-8);
      }

      .cls-12 {
        clip-path: url(#clip-path-9);
      }

      .cls-13 {
        clip-path: url(#clip-path-10);
      }

      .cls-14 {
        clip-path: url(#clip-path-13);
      }

      .cls-15 {
        fill: rgba(255,255,255,0.8);
      }
    </style>
    <clipPath id="clip-path">
      <rect id="Rectangle_26" data-name="Rectangle 26" class="cls-1" width="100" height="66" transform="translate(34 281)"/>
    </clipPath>
    <clipPath id="clip-path-2">
      <rect id="Rectangle_28" data-name="Rectangle 28" class="cls-2" width="100" height="66" transform="translate(255 300)"/>
    </clipPath>
    <clipPath id="clip-path-3">
      <rect id="Rectangle_31" data-name="Rectangle 31" class="cls-1" width="100" height="66" transform="translate(59 639)"/>
    </clipPath>
    <clipPath id="clip-path-4">
      <rect id="Rectangle_32" data-name="Rectangle 32" class="cls-1" width="100" height="66" transform="translate(255 639)"/>
    </clipPath>
    <clipPath id="clip-path-5">
      <rect id="Rectangle_104" data-name="Rectangle 104" class="cls-3" width="100" height="66" transform="translate(343 503)"/>
    </clipPath>
    <clipPath id="clip-path-6">
      <rect id="Rectangle_103" data-name="Rectangle 103" class="cls-3" width="100" height="66" transform="translate(343 578)"/>
    </clipPath>
    <clipPath id="clip-path-7">
      <rect id="Rectangle_102" data-name="Rectangle 102" class="cls-3" width="100" height="66" transform="translate(343 653)"/>
    </clipPath>
    <clipPath id="clip-path-8">
      <rect id="Rectangle_105" data-name="Rectangle 105" class="cls-3" width="100" height="66" transform="translate(293 650)"/>
    </clipPath>
    <clipPath id="clip-path-9">
      <rect id="Rectangle_106" data-name="Rectangle 106" class="cls-1" width="100" height="66"/>
    </clipPath>
    <clipPath id="clip-path-10">
      <rect id="Rectangle_107" data-name="Rectangle 107" class="cls-2" width="100" height="66"/>
    </clipPath>
    <clipPath id="clip-path-13">
      <rect id="Rectangle_110" data-name="Rectangle 110" class="cls-3" width="100" height="66"/>
    </clipPath>
  </defs>
  <g id="bg" transform="translate(0 -508)">
    <g id="medical_svg_background" data-name="medical svg background">
      <g id="Mask_Group_3" data-name="Mask Group 3" class="cls-4" transform="translate(56 397)">
        <g id="ophthalmologist" transform="translate(50.569 281)">
          <g id="Group_13" data-name="Group 13">
            <g id="Group_12" data-name="Group 12">
              <path id="Path_23" data-name="Path 23" d="M48.156,62.625,38.9,59.572V58.21H36.754v2l-1.605,6.355L30.805,61.4H27.647L23.3,66.564l-1.6-6.355v-2H19.549v1.362L10.3,62.625a11.721,11.721,0,0,0-7.927,9.184L0,85.888H58.453L56.082,71.809A11.714,11.714,0,0,0,48.156,62.625ZM30.3,83.759V66.727H28.152V83.759H12.135l.957-9.474-2.14-.212L9.974,83.76H2.54l1.953-11.6a9.591,9.591,0,0,1,6.486-7.514l6.42-2.118V72.2a4.3,4.3,0,1,0,2.151,0V61.816l.314-.1,2.383,9.435,6.409-7.614H29.8l6.41,7.614,2.383-9.435.314.1v8.511L34.83,72.344a4.228,4.228,0,0,0-2.377,3.808v1.22a4.284,4.284,0,0,0,4.3,4.258h1.075V79.5H36.754A2.142,2.142,0,0,1,34.6,77.372v-1.22a2.114,2.114,0,0,1,1.188-1.9l4.188-2.073,4.188,2.073a2.115,2.115,0,0,1,1.188,1.9v1.22A2.142,2.142,0,0,1,43.205,79.5H42.13V81.63h1.075A4.288,4.288,0,0,0,46,80.583l.32,3.175ZM18.474,74.178a2.129,2.129,0,1,1-2.151,2.129A2.142,2.142,0,0,1,18.474,74.178ZM48.48,83.759,47.5,74.072l-.52.051a4.255,4.255,0,0,0-1.852-1.78l-4.074-2.016v-7.8l6.422,2.118a9.593,9.593,0,0,1,6.486,7.514l1.952,11.6Z" transform="translate(0 -19.888)"/>
              <path id="Path_24" data-name="Path 24" d="M21.2,28.828a11.614,11.614,0,0,0,2.989,4.995l4.194,4.151a5.37,5.37,0,0,0,3.8,1.56h5.04a5.37,5.37,0,0,0,3.8-1.56l4.194-4.151A11.614,11.614,0,0,0,48.2,28.828,5.272,5.272,0,0,0,50.8,19.307h.033V16.114a16.13,16.13,0,0,0-32.258,0v3.194H18.6A5.272,5.272,0,0,0,21.2,28.828Zm25.331-3.286a9.472,9.472,0,0,1-2.834,6.776L39.5,36.468a3.26,3.26,0,0,1-2.281.936H32.18a3.262,3.262,0,0,1-2.281-.936l-4.194-4.151a9.47,9.47,0,0,1-2.834-6.775V20.372h7.952a13.94,13.94,0,0,0,7.1-1.935,13.947,13.947,0,0,0,7.1,1.935h1.5Zm4.3-1.977a3.19,3.19,0,0,1-2.2,3.013c.03-.343.051-.687.051-1.036V20.568A3.192,3.192,0,0,1,50.83,23.565ZM20.722,16.114a13.979,13.979,0,0,1,27.957,0V18.35a5.424,5.424,0,0,0-1.075-.108H45.028a11.787,11.787,0,0,1-6.506-1.95l-.6-.394-.6.394a11.781,11.781,0,0,1-6.505,1.95H21.8a5.424,5.424,0,0,0-1.075.108V16.114Zm0,4.454v4.974c0,.348.02.693.051,1.036a3.163,3.163,0,0,1-.051-6.01Z" transform="translate(-5.474 -0.146)"/>
              <path id="Path_25" data-name="Path 25" d="M59.969.146V2.275H84.7V44.856H76.1v2.129H86.851V.146Z" transform="translate(-19.99 -0.146)"/>
              <path id="Path_26" data-name="Path 26" d="M71.26,20.469h7.527V18.34H73.41V16.21h5.376V14.081H73.41V11.952h5.376V9.823H71.26Z" transform="translate(-23.753 -3.436)"/>
              <path id="Path_27" data-name="Path 27" d="M90.077,40.985V38.856H82.55V49.5h7.527V47.372H84.7V45.243h5.376V43.114H84.7V40.985Z" transform="translate(-27.517 -13.307)"/>
              <path id="Path_28" data-name="Path 28" d="M65.883,49.565h-4.3v2.129h6.452V45.307H65.883Z" transform="translate(-20.527 -15.501)"/>
            </g>
          </g>
        </g>
      </g>
      <g id="Mask_Group_5" data-name="Mask Group 5" class="cls-5" transform="translate(-165 460)">
        <g id="otolaryngologist" transform="translate(271.981 299.981)">
          <path id="Path_34" data-name="Path 34" d="M60.2,36.937a.968.968,0,0,0-1.251,1.477,14.508,14.508,0,1,1-3.259-2.088.968.968,0,0,0,.818-1.754,16.353,16.353,0,0,0-6.962-1.539,16.522,16.522,0,0,0-15.84,11.9l-2.162-.882v-3.76a12.508,12.508,0,0,0,5.225-10.152v-1.2a4.444,4.444,0,0,0,3.072-7.406l.2-9.034a12.229,12.229,0,0,0-1.221-5.609.968.968,0,1,0-1.741.846,10.284,10.284,0,0,1,1.027,4.718l-.176,7.825a4.419,4.419,0,0,0-1.164-.222V18.877a3.272,3.272,0,0,0-.79-2.131,5.329,5.329,0,0,0-4.045-1.857H24.9a5.769,5.769,0,0,1-3.909-1.521L17.6,10.262a1.258,1.258,0,0,0-1.685-.016l-.806.71a9.426,9.426,0,0,0-3.192,7.068v2.027a4.426,4.426,0,0,0-.861.131l-.307-8.052a5.313,5.313,0,0,1,4.957-5.54l1.6-.113a2.652,2.652,0,0,0,1.263-.426l3.688-2.415A10.218,10.218,0,0,1,34.841,4.7a.968.968,0,0,0,1.317-1.418A12.15,12.15,0,0,0,21.2,2.018L17.513,4.433a.713.713,0,0,1-.339.114l-1.6.113A7.273,7.273,0,0,0,8.82,12.207l.343,9a4.445,4.445,0,0,0,2.758,7.723v.5a13.555,13.555,0,0,0,.378,3.177.968.968,0,0,0,1.881-.454,11.62,11.62,0,0,1-.324-2.723V18.024a7.49,7.49,0,0,1,2.536-5.616l.35-.309,2.939,2.7a7.7,7.7,0,0,0,5.217,2.03h7.034a3.4,3.4,0,0,1,2.577,1.183,1.335,1.335,0,0,1,.323.87V30.136A10.591,10.591,0,0,1,21.5,40.334,11.665,11.665,0,0,1,15.7,35.7a.968.968,0,1,0-1.628,1.046A13.564,13.564,0,0,0,17.143,40.1v2.163a5.2,5.2,0,0,0-3.929,3.385L9.729,47.072A15.578,15.578,0,0,0,0,61.55v3.477a.968.968,0,0,0,1.935,0V61.55A13.65,13.65,0,0,1,10.46,48.864l2.462-1v6.077a4.036,4.036,0,1,0,1.935,0s.005-6.775.014-6.873l2.88-1.175q.243.2.495.387V65.026a.968.968,0,0,0,1.935,0V47.4a10.323,10.323,0,0,0,8.976-.319V65.027a.968.968,0,0,0,1.935,0V45.954l2.179.889A16.493,16.493,0,1,0,60.2,36.937ZM39.041,24.492a2.515,2.515,0,0,1-2.273,2.5v-5A2.515,2.515,0,0,1,39.041,24.492Zm-29.392,0a2.515,2.515,0,0,1,2.273-2.5v5A2.515,2.515,0,0,1,9.649,24.492Zm6.342,33.363a2.1,2.1,0,1,1-2.1-2.1A2.1,2.1,0,0,1,15.991,57.855Zm3.088-13.381V41.363a13.385,13.385,0,0,0,1.8.806c.025.009.05.017.076.024a12.573,12.573,0,0,0,7.5-.293c.394-.14.776-.3,1.149-.476v3.05A8.373,8.373,0,0,1,19.078,44.474Z"/>
          <path id="Path_35" data-name="Path 35" d="M27.684,27.083h3.692a2.239,2.239,0,0,0,2.237-2.237V22.375a2.239,2.239,0,0,0-2.237-2.237H27.684a2.237,2.237,0,0,0-2.013,1.269H23.13a2.237,2.237,0,0,0-2.013-1.269H17.425a2.239,2.239,0,0,0-2.237,2.237v2.472a2.239,2.239,0,0,0,2.237,2.237h3.692a2.239,2.239,0,0,0,2.237-2.237v-1.5h2.094v1.5a2.239,2.239,0,0,0,2.237,2.237Zm-.3-4.708a.3.3,0,0,1,.3-.3h3.692a.3.3,0,0,1,.3.3v2.472a.3.3,0,0,1-.3.3H27.684a.3.3,0,0,1-.3-.3Zm-5.965,2.472a.3.3,0,0,1-.3.3H17.425a.3.3,0,0,1-.3-.3V22.375a.3.3,0,0,1,.3-.3h3.692a.3.3,0,0,1,.3.3Z"/>
          <path id="Path_36" data-name="Path 36" d="M51.08,37.279a7.54,7.54,0,0,0-7.532,7.532V57.939a4.312,4.312,0,0,0,8.623,0V57.6a.5.5,0,0,1,.15-.354l4-3.881a7.572,7.572,0,0,0,2.289-5.407V44.811a7.54,7.54,0,0,0-7.532-7.532Zm5.6,10.676a5.627,5.627,0,0,1-1.7,4.018l-4,3.881a2.441,2.441,0,0,0-.738,1.743v.343a2.376,2.376,0,0,1-4.753,0V44.811a5.6,5.6,0,0,1,11.193,0v3.144Z"/>
          <path id="Path_37" data-name="Path 37" d="M51.08,41.394a3.421,3.421,0,0,0-3.417,3.417.968.968,0,1,0,1.935,0,1.482,1.482,0,1,1,2.964,0v3.144a1.49,1.49,0,0,1-.45,1.064l-4,3.88q-.093.09-.182.183a.968.968,0,0,0-.266.667v1.7a.968.968,0,1,0,1.935,0v-1.3l3.861-3.744A3.436,3.436,0,0,0,54.5,47.955V44.811a3.421,3.421,0,0,0-3.417-3.417Z"/>
          <path id="Path_38" data-name="Path 38" d="M48.63,50.238a.968.968,0,0,0,.968-.968v-.324l.066-.066a.968.968,0,1,0-1.369-1.368l-.349.349a.968.968,0,0,0-.283.684v.725a.967.967,0,0,0,.968.967Z"/>
        </g>
      </g>
      <g id="Mask_Group_7" data-name="Mask Group 7" class="cls-6" transform="translate(128 39)">
        <g id="dentist" transform="translate(75.634 638.634)">
          <g id="Group_27" data-name="Group 27">
            <g id="Group_26" data-name="Group 26">
              <path id="Path_43" data-name="Path 43" d="M17.939,18.518a1.067,1.067,0,0,0-1.064,1.064v.585a1.257,1.257,0,0,1-1.223,1.277h-.013a1.3,1.3,0,0,1-1.29-1.277v-.585a1.064,1.064,0,1,0-2.128,0v.585a3.428,3.428,0,0,0,1.024,2.407,3.341,3.341,0,0,0,2.38,1A3.38,3.38,0,0,0,19,20.167v-.585A1.067,1.067,0,0,0,17.939,18.518Z"/>
            </g>
          </g>
          <g id="Group_29" data-name="Group 29">
            <g id="Group_28" data-name="Group 28">
              <path id="Path_44" data-name="Path 44" d="M29.642,18.531A1.067,1.067,0,0,0,28.578,19.6v.585a1.263,1.263,0,1,1-2.527,0V19.6a1.064,1.064,0,1,0-2.128,0v.585a3.391,3.391,0,1,0,6.782,0V19.6A1.067,1.067,0,0,0,29.642,18.531Z"/>
            </g>
          </g>
          <g id="Group_31" data-name="Group 31">
            <g id="Group_30" data-name="Group 30">
              <path id="Path_45" data-name="Path 45" d="M51.146,35.208a15.494,15.494,0,0,0-12.421,6.157,10.318,10.318,0,0,0-5.559-1.636H27.514V37.867a14.732,14.732,0,0,0,6.051-4.987,14.537,14.537,0,0,0,2.646-7.54,3.784,3.784,0,0,0,.08-7.367V11.8h2.181a1.067,1.067,0,0,0,1.064-1.064A10.4,10.4,0,0,0,29.163.366H19.588a5.639,5.639,0,0,0-4.043,1.662A4.955,4.955,0,0,0,14.774,3c-4.748.226-7.208,3.8-7.926,7.181v.027a4.864,4.864,0,0,0-.066.758V17.92A3.6,3.6,0,0,0,4.761,18.97a3.8,3.8,0,0,0,2.048,6.436,14.76,14.76,0,0,0,9.282,12.7v1.622H10.439A10.5,10.5,0,0,0,0,50.195V63.214a1.137,1.137,0,0,0,1.09,1.117H42.874a1.047,1.047,0,0,0,.4-.106,15.578,15.578,0,1,0,7.873-29.017ZM6.769,23.186a1.567,1.567,0,0,1-1.011-1.529,1.671,1.671,0,0,1,.492-1.184,1.4,1.4,0,0,1,.519-.359v3.072Zm29.788-2.7a1.631,1.631,0,0,1,.505,1.17,1.832,1.832,0,0,1-.785,1.4V20.26C36.291,20.313,36.477,20.393,36.557,20.486ZM16.357,4.5a3.393,3.393,0,0,1,.692-.971,3.559,3.559,0,0,1,2.54-1.037h9.575a8.173,8.173,0,0,1,8.165,7.181H19.588c-.04,0-.066-.013-.106-.013s-.066-.013-.106-.013A3.588,3.588,0,0,1,16.357,4.5ZM8.9,10.965a2.808,2.808,0,0,1,.027-.346,8.233,8.233,0,0,1,1.489-3.258,5.6,5.6,0,0,1,3.524-2.128,5.7,5.7,0,0,0,3.471,6.117A11.655,11.655,0,0,1,8.9,15.233V10.965Zm3.7,22.355a12.531,12.531,0,0,1-3.7-8.937V17.388A13.923,13.923,0,0,0,19.828,11.8H34.164v12.58a12.649,12.649,0,0,1-21.57,8.936ZM20.466,62.2H2.114V50.195A8.307,8.307,0,0,1,9.96,41.923v2.859a4.918,4.918,0,0,0-2.593,1.423,5.207,5.207,0,0,0-1.529,3.724v5.865a1.046,1.046,0,0,0,1.011,1.09H8.524a1.064,1.064,0,0,0,0-2.128H7.966V49.929a3.082,3.082,0,0,1,.891-2.221A3.023,3.023,0,0,1,11,46.777h.04a3.2,3.2,0,0,1,3.178,3.152v4.827H13.139a1.064,1.064,0,0,0,0,2.128h2.1a1.125,1.125,0,0,0,1.1-1.09V49.929a5.293,5.293,0,0,0-4.255-5.16V41.857h4.588l3.79,4.1V62.2ZM18.205,40.434V38.758a14.563,14.563,0,0,0,7.181-.133v1.769L21.61,44.011ZM22.594,62.2h0V45.979l4.269-4.122h1.981v5.612a4.262,4.262,0,1,0,4.069,1.13,4.589,4.589,0,0,0-1.955-1.13V41.857h2.194a8.212,8.212,0,0,1,4.4,1.29A15.7,15.7,0,0,0,40.52,62.2H22.594Zm7.261-12.74a2.161,2.161,0,1,1-1.529.625A2.185,2.185,0,0,1,29.855,49.463ZM51.146,64.225a13.437,13.437,0,1,1,11.25-6.1A13.439,13.439,0,0,1,51.146,64.225Z"/>
            </g>
          </g>
          <g id="Group_33" data-name="Group 33">
            <g id="Group_32" data-name="Group 32">
              <path id="Path_46" data-name="Path 46" d="M56.292,42.242a4.873,4.873,0,0,0-.984-.027,12.85,12.85,0,0,0-2.553.452,1.066,1.066,0,0,0,.545,2.061,11.942,11.942,0,0,1,2.168-.386,3.186,3.186,0,0,1,3.418,2.926,2.87,2.87,0,0,1-.013.585,27.776,27.776,0,0,1-3.737,10.812l-2.168-3.99a1.594,1.594,0,0,0-1.423-.851,1.611,1.611,0,0,0-1.436.891L48.167,58.6a27.789,27.789,0,0,1-3.71-10.745A3.2,3.2,0,0,1,47.3,44.344a2.278,2.278,0,0,1,.426-.013c.2.226.386.465.572.7,1,1.33,2.859,3.79,6.436,3.338a1.059,1.059,0,0,0-.266-2.1c-2.354.293-3.537-1.263-4.468-2.513-.6-.8-1.117-1.476-1.942-1.543a5.319,5.319,0,0,0-5.718,4.894,4.868,4.868,0,0,0,.013.984,30.291,30.291,0,0,0,4.482,12.434,1.608,1.608,0,0,0,1.45.771,1.59,1.59,0,0,0,1.356-.891l1.915-3.843,2.128,3.91a1.615,1.615,0,0,0,1.37.851h.053a1.629,1.629,0,0,0,1.383-.771A30.51,30.51,0,0,0,61,48.094,5.314,5.314,0,0,0,56.292,42.242Z"/>
            </g>
          </g>
        </g>
      </g>
      <g id="Mask_Group_9" data-name="Mask Group 9" class="cls-7" transform="translate(-68 121)">
        <path id="surgeon" d="M49.833,41.228a26.431,26.431,0,0,0-3.7-.535l-5.513-2.757a1.319,1.319,0,0,1-.734-1.187V31.925a10.313,10.313,0,0,0,5.335-7.073,5.066,5.066,0,0,0,.211-9.991V12.468a.972.972,0,1,0-1.943,0v.424H21.658V7.107a5.169,5.169,0,0,1,5.163-5.163h11.5a5.169,5.169,0,0,1,5.163,5.163v.957a.972.972,0,1,0,1.943,0V7.107A7.115,7.115,0,0,0,38.32,0h-11.5a7.115,7.115,0,0,0-7.106,7.106v7.766a5.066,5.066,0,0,0,.209,9.972,10.368,10.368,0,0,0,5.391,7.112v4.792a1.321,1.321,0,0,1-.735,1.188l-5.593,2.8A26.187,26.187,0,0,0,15,41.61,14.535,14.535,0,0,0,5.573,55.2v8.116A2.686,2.686,0,0,0,8.256,66H12.4a.972.972,0,0,0,0-1.943H8.256a.741.741,0,0,1-.74-.74V55.2a12.581,12.581,0,0,1,6.92-11.225v7.994h-.469a3.564,3.564,0,0,0-3.56,3.56v3.232A2.137,2.137,0,0,0,12.542,60.9h.851a.972.972,0,1,0,0-1.943h-.851a.192.192,0,0,1-.191-.191V55.531a1.619,1.619,0,0,1,1.617-1.617h2.88a1.619,1.619,0,0,1,1.617,1.617v3.232a.192.192,0,0,1-.191.191h-.851a.972.972,0,1,0,0,1.943h.851a2.137,2.137,0,0,0,2.134-2.134V55.531a3.564,3.564,0,0,0-3.56-3.56h-.469V43.191a12.526,12.526,0,0,1,3.7-.557h.891c4.015,3.216,7.842,4.825,11.61,4.825s7.475-1.609,11.25-4.825h2.082a12.562,12.562,0,0,1,2.63.278v8.9a4.463,4.463,0,1,0,1.943,0V43.5A12.588,12.588,0,0,1,58.484,55.2v8.116a.741.741,0,0,1-.74.74H16.808a.972.972,0,1,0,0,1.943H57.745a2.686,2.686,0,0,0,2.683-2.683V55.2A14.537,14.537,0,0,0,49.833,41.228Zm2.205,14.937a2.52,2.52,0,1,1-2.52-2.52A2.523,2.523,0,0,1,52.038,56.165ZM47.607,19.839a3.13,3.13,0,0,1-2.181,2.978c0-.013,0-.025,0-.038V16.862A3.129,3.129,0,0,1,47.607,19.839Zm-30.019,0a3.133,3.133,0,0,1,2.127-2.958v5.9c0,.007,0,.013,0,.02A3.129,3.129,0,0,1,17.587,19.839Zm4.134,3.976c-.042-.344-.064-8.98-.064-8.98H43.484s-.021,8.636-.064,8.98a8.377,8.377,0,0,1-8.311,7.34H30.034a8.312,8.312,0,0,1-3.358-.7,8.4,8.4,0,0,1-4.954-6.64Zm.643,17.443-.016-.033,3.1-1.549a3.254,3.254,0,0,0,1.809-2.926V32.718a10.281,10.281,0,0,0,2.776.381h5.075a10.3,10.3,0,0,0,2.828-.395V36.75a3.251,3.251,0,0,0,1.809,2.925l2.8,1.4a.973.973,0,0,0-.121.205c-6.694,5.626-12.919,5.618-20.061-.023Z" transform="translate(272 639)"/>
      </g>
      <g id="Mask_Group_21" data-name="Mask Group 21" class="cls-8" transform="translate(-64 175)">
        <g id="doctor" transform="translate(360 503)">
          <g id="Group_89" data-name="Group 89">
            <g id="Group_88" data-name="Group 88">
              <path id="Path_116" data-name="Path 116" d="M26.8,20.666a.967.967,0,0,0-.967.967v1.033a.967.967,0,0,0,1.934,0V21.633A.967.967,0,0,0,26.8,20.666Z"/>
            </g>
          </g>
          <g id="Group_91" data-name="Group 91">
            <g id="Group_90" data-name="Group 90">
              <path id="Path_117" data-name="Path 117" d="M39.2,20.666a.967.967,0,0,0-.967.967v1.033a.967.967,0,1,0,1.934,0V21.633A.967.967,0,0,0,39.2,20.666Z"/>
            </g>
          </g>
          <g id="Group_93" data-name="Group 93">
            <g id="Group_92" data-name="Group 92">
              <path id="Path_118" data-name="Path 118" d="M36.788,28.188a.966.966,0,0,0-1.367-.009A3.581,3.581,0,0,1,33,28.933a3.581,3.581,0,0,1-2.421-.755.967.967,0,1,0-1.358,1.376A5.465,5.465,0,0,0,33,30.867a5.464,5.464,0,0,0,3.779-1.312A.967.967,0,0,0,36.788,28.188Z"/>
            </g>
          </g>
          <g id="Group_95" data-name="Group 95">
            <g id="Group_94" data-name="Group 94">
              <path id="Path_119" data-name="Path 119" d="M27.833,17.566H25.767a.967.967,0,1,0,0,1.934h2.067a.967.967,0,1,0,0-1.934Z"/>
            </g>
          </g>
          <g id="Group_97" data-name="Group 97">
            <g id="Group_96" data-name="Group 96">
              <path id="Path_120" data-name="Path 120" d="M40.233,17.566H38.167a.967.967,0,1,0,0,1.934h2.067a.967.967,0,0,0,0-1.934Z"/>
            </g>
          </g>
          <g id="Group_99" data-name="Group 99">
            <g id="Group_98" data-name="Group 98">
              <path id="Path_121" data-name="Path 121" d="M53.706,46.05l-6.969-2.142A2.217,2.217,0,0,0,45.51,41.79L41.2,39.636V36.563a14.421,14.421,0,0,0,6.061-9.829h.575a3.663,3.663,0,0,0,3.679-3.188,3.545,3.545,0,0,0-2.048-3.586V9.233A7.175,7.175,0,0,0,42.3,2.067h-.163A12.188,12.188,0,0,0,35,0,24.648,24.648,0,0,0,22.976,2.715a41.929,41.929,0,0,1-6.006,2.318.967.967,0,0,0-.621,1.3,8.772,8.772,0,0,0,1.576,2.291c-.481.592-1.392,2.107-1.392,5.086V20a3.526,3.526,0,0,0,1.483,6.73h.722A14.417,14.417,0,0,0,24.8,36.564v3.071L20.49,41.79a2.217,2.217,0,0,0-1.228,2.117L12.294,46.05A7.131,7.131,0,0,0,7.233,52.9V65.033a.967.967,0,0,0,1.934,0V52.9a5.207,5.207,0,0,1,3.7-5l7.248-2.229,1.279,1.706-1.454,1.454a3.029,3.029,0,0,0-.568,3.5l2.768,5.535H19.5v-1.1a.967.967,0,0,0-1.934,0v1.1h-4.2a.967.967,0,0,0-.967.967v6.2a.967.967,0,0,0,.967.967H23.7a.967.967,0,0,0,.967-.967v-2.1l1.268,2.537a.967.967,0,0,0,1.729-.865L21.1,51.466A1.1,1.1,0,0,1,21.3,50.2l2.047-2.047a.967.967,0,0,0,.09-1.264l-2.19-2.92a.3.3,0,0,1,.105-.446l3.808-1.9,2.688,9.217a.967.967,0,1,0,1.856-.541l-.424-1.453a11.312,11.312,0,0,0,7.432,0L33,61.58l-2.086-7.153a.967.967,0,1,0-1.856.541L32.072,65.3a.967.967,0,0,0,1.856,0l6.909-23.688,3.808,1.9a.3.3,0,0,1,.105.446l-2.19,2.92a.967.967,0,0,0,.09,1.264L44.7,50.2a1.1,1.1,0,0,1,.206,1.269L38.335,64.6a.967.967,0,1,0,1.73.865l6.567-13.134a3.03,3.03,0,0,0-.568-3.5L44.61,47.376l1.279-1.706L53.138,47.9a5.207,5.207,0,0,1,3.7,5V65.033a.967.967,0,0,0,1.934,0V52.9A7.131,7.131,0,0,0,53.706,46.05ZM22.733,64.066h-8.4V59.8h3.233v.067a.967.967,0,0,0,1.934,0V59.8h3.233v4.266Zm1.041-59.59A22.772,22.772,0,0,1,35,1.934c3.567,0,6.754,1.493,7.414,3.472a.967.967,0,0,0,1.834-.612,4.558,4.558,0,0,0-.2-.491,5.242,5.242,0,0,1,3.48,4.93v10.4h-1.1a1.1,1.1,0,0,1-1.1-1.1V17.5A12.317,12.317,0,0,0,41.95,9.583a.968.968,0,0,0-.975-.238c-5.367,1.695-12.934,3.123-18.505.3A10.4,10.4,0,0,1,18.7,6.52,47.55,47.55,0,0,0,23.775,4.476ZM39.267,40.1,37.42,46.426a9.38,9.38,0,0,1-8.84,0L26.734,40.1V37.7a14.379,14.379,0,0,0,12.533,0ZM33,37.2A12.48,12.48,0,0,1,20.534,24.733a.967.967,0,0,0-1.934,0V24.8h-.583a1.617,1.617,0,0,1-1.608-1.787,1.715,1.715,0,0,1,1.756-1.446h1.4A3.037,3.037,0,0,0,22.6,18.533V14.884a.967.967,0,0,0-1.934,0v3.649a1.1,1.1,0,0,1-1.1,1.1h-1.1V13.711a6.516,6.516,0,0,1,.884-3.765,13.289,13.289,0,0,0,2.094,1.35,18.048,18.048,0,0,0,7.751,1.88,36.59,36.59,0,0,0,11.761-1.8A10.189,10.189,0,0,1,43.4,17.5v1.033a3.037,3.037,0,0,0,3.033,3.033h1.55a1.617,1.617,0,0,1,1.608,1.787A1.715,1.715,0,0,1,47.836,24.8H47.4v-.056a.967.967,0,0,0-.966-.967h0a.967.967,0,0,0-.967.966A12.483,12.483,0,0,1,33,37.2Z"/>
            </g>
          </g>
          <g id="Group_101" data-name="Group 101">
            <g id="Group_100" data-name="Group 100">
              <path id="Path_122" data-name="Path 122" d="M52.633,58.383H51.017V56.766a.967.967,0,0,0-1.934,0v1.616H47.467a.967.967,0,0,0,0,1.934h1.617v1.616a.967.967,0,1,0,1.934,0V60.316h1.616a.967.967,0,1,0,0-1.934Z"/>
            </g>
          </g>
        </g>
      </g>
      <g id="Mask_Group_22" data-name="Mask Group 22" class="cls-9" transform="translate(-64 182)">
        <g id="doctor_1_" data-name="doctor (1)" transform="translate(358.115 576.116)">
          <path id="Path_123" data-name="Path 123" d="M34.861,38.729c-8.5-.277-10.543-7.558-10.979-9.908a3.691,3.691,0,0,1-2.068-1.313,4.155,4.155,0,0,1-.774-2.828,3.9,3.9,0,0,1,.92-3.033,2.853,2.853,0,0,1,.687-.519,15,15,0,0,1-2.235-8.518c.984-7.034,6.653-7.718,8.428-7.758a8.311,8.311,0,0,1,2.988-2.2A10.53,10.53,0,0,1,38.6,2.271c4.4,1.147,7.327,3.348,8.717,6.541,1.98,4.539.243,9.763-.754,12.109a2.888,2.888,0,0,1,1.03.591,3.782,3.782,0,0,1,1.052,3.169,4.148,4.148,0,0,1-.773,2.828A3.7,3.7,0,0,1,45.8,28.823C45.364,31.171,43.33,38.452,34.861,38.729ZM24.223,22.635a1.276,1.276,0,0,0-.911.324,2.247,2.247,0,0,0-.386,1.687.968.968,0,0,1-.007.189,2.328,2.328,0,0,0,.4,1.532,2.152,2.152,0,0,0,1.509.715.943.943,0,0,1,.829.856c.031.351.867,8.634,9.211,8.907,8.3-.273,9.137-8.556,9.168-8.909a.943.943,0,0,1,.829-.854,2.151,2.151,0,0,0,1.509-.715,2.333,2.333,0,0,0,.4-1.54.987.987,0,0,1-.007-.183,2.247,2.247,0,0,0-.425-1.731,1.43,1.43,0,0,0-1.024-.268.943.943,0,0,1-.995-1.376c.035-.066,3.488-6.621,1.269-11.715-1.149-2.632-3.658-4.47-7.459-5.462a8.635,8.635,0,0,0-5.537.283,6.341,6.341,0,0,0-2.54,1.987.934.934,0,0,1-.836.377c-.244-.02-6.017-.393-6.922,6.061h0S22.026,17.935,25,21.046a.943.943,0,0,1,.179,1.037.893.893,0,0,1-.893.557Z"/>
          <path id="Path_124" data-name="Path 124" d="M45.144,22.657a.943.943,0,0,1-.943-.9c-.011-.244-.3-5.94-4.556-6.488A14.356,14.356,0,0,1,28.7,12.095c-1.2.9-3.972,3.653-3.439,9.514a.943.943,0,0,1-1.874.171c-.782-8.6,4.741-11.585,4.975-11.707a.943.943,0,0,1,1.088.155,12.592,12.592,0,0,0,10.019,3.161,1.054,1.054,0,0,1,.261-.009c4.793.5,6.258,5.649,6.361,8.3a.943.943,0,0,1-.9.979Z"/>
          <path id="Path_125" data-name="Path 125" d="M61.368,67.884H8.4a.943.943,0,0,1-.943-.943V56.43A12.547,12.547,0,0,1,20,43.909h1.81a.943.943,0,1,1,0,1.886H20A10.66,10.66,0,0,0,9.344,56.43V66H60.425V56.43A10.648,10.648,0,0,0,49.789,45.794h-1.94a.943.943,0,1,1,0-1.886h1.94A12.54,12.54,0,0,1,62.311,56.43V66.941A.943.943,0,0,1,61.368,67.884Z"/>
          <path id="Path_126" data-name="Path 126" d="M38.036,67.884A.943.943,0,0,1,37.1,66.8l3.816-25.252a.943.943,0,0,1,1.2-.762l6.585,1.985a.943.943,0,0,1,.573,1.32l-2.617,5.252,1.518,1.7a.943.943,0,0,1,.094,1.123L38.837,67.437A.943.943,0,0,1,38.036,67.884Zm4.586-24.978L39.656,62.53l6.65-10.748-1.474-1.655a.943.943,0,0,1-.14-1.047l2.4-4.822Z"/>
          <path id="Path_127" data-name="Path 127" d="M31.625,67.884a.943.943,0,0,1-.8-.447L21.382,52.173a.943.943,0,0,1,.094-1.123l1.518-1.7-2.617-5.252a.943.943,0,0,1,.573-1.32l6.585-1.985a.943.943,0,0,1,1.2.762L32.555,66.8a.943.943,0,0,1-.93,1.08ZM23.355,51.778,30,62.527l-2.965-19.62-4.473,1.348,2.4,4.822a.943.943,0,0,1-.14,1.047Z"/>
          <path id="Path_128" data-name="Path 128" d="M34.9,50.3a51.114,51.114,0,0,1-6.1-.37.943.943,0,1,1,.224-1.872,47.535,47.535,0,0,0,11.6,0,.943.943,0,1,1,.236,1.871,47.613,47.613,0,0,1-5.964.37Z"/>
          <path id="Path_129" data-name="Path 129" d="M41.853,42.632a.943.943,0,0,1-.754-.382c-1.4-1.894-1.655-5.649-1.678-6.07a.943.943,0,0,1,.886-1,.953.953,0,0,1,1,.886c.058.992.406,3.834,1.311,5.058a.943.943,0,0,1-.754,1.5Z"/>
          <path id="Path_130" data-name="Path 130" d="M27.808,42.632a.943.943,0,0,1-.754-1.5c.907-1.226,1.255-4.067,1.312-5.058a.944.944,0,1,1,1.886.109c-.024.421-.283,4.176-1.678,6.07a.943.943,0,0,1-.766.382Z"/>
          <path id="Path_131" data-name="Path 131" d="M53.888,54.669a.943.943,0,0,1-.943-.915c-.176-6.14-2.511-8.072-2.533-8.09a.949.949,0,0,1-.164-1.32.937.937,0,0,1,1.306-.181c.124.094,3.071,2.383,3.277,9.537a.943.943,0,0,1-.915.969Z"/>
          <path id="Path_132" data-name="Path 132" d="M53.892,60.236a3.727,3.727,0,1,1,3.726-3.727,3.727,3.727,0,0,1-3.726,3.727Zm0-5.568a1.841,1.841,0,1,0,1.84,1.841,1.841,1.841,0,0,0-1.84-1.841Z"/>
          <path id="Path_133" data-name="Path 133" d="M15.163,54.669a.943.943,0,0,1-.943-.876c-.514-7.236,3.473-9.549,3.643-9.644a.943.943,0,1,1,.927,1.642c-.143.085-3.111,1.917-2.69,7.869a.943.943,0,0,1-.874,1.007Z"/>
          <path id="Path_134" data-name="Path 134" d="M13.255,62.218a.943.943,0,0,1-.754-.371,5.894,5.894,0,0,1-1-2.025,5.668,5.668,0,0,1,3.7-7.064,5.28,5.28,0,0,1,4.054.5A6.051,6.051,0,0,1,22.2,59.494a.943.943,0,1,1-1.86-.309,4.169,4.169,0,0,0-2-4.28,3.412,3.412,0,0,0-2.619-.333,3.785,3.785,0,0,0-2.4,4.748A4.023,4.023,0,0,0,14,60.705a.943.943,0,0,1-.75,1.513Z"/>
          <path id="Path_135" data-name="Path 135" d="M21.285,60.284a.752.752,0,0,1-.112-.006l-1.063-.125a.943.943,0,1,1,.223-1.873l1.063.126a.943.943,0,0,1-.11,1.879Z"/>
          <path id="Path_136" data-name="Path 136" d="M13.255,62.227a.943.943,0,0,1-.328-1.827l1.131-.418a.943.943,0,0,1,.66,1.768l-1.131.419a.943.943,0,0,1-.332.058Z"/>
        </g>
      </g>
      <g id="Mask_Group_23" data-name="Mask Group 23" class="cls-10" transform="translate(30 25)">
        <g id="doctor_2_" data-name="doctor (2)" transform="translate(360 653)">
          <g id="Group_103" data-name="Group 103">
            <g id="Group_102" data-name="Group 102">
              <path id="Path_137" data-name="Path 137" d="M52.952,48.195,45.5,45.564a2.431,2.431,0,0,0-1.308-2.838l-4.022-1.9V39.5a70.4,70.4,0,0,0,10.466-2.688,3.047,3.047,0,0,0,1.781-1.6,2.957,2.957,0,0,0,.071-2.352,16.557,16.557,0,0,1-.951-6.066V18.533a18.533,18.533,0,1,0-37.067,0V26.8a16.559,16.559,0,0,1-.951,6.066,2.957,2.957,0,0,0,.071,2.352,3.047,3.047,0,0,0,1.781,1.6A70.4,70.4,0,0,0,25.833,39.5v1.324l-4.022,1.9A2.431,2.431,0,0,0,20.5,45.564l-7.455,2.631a7.178,7.178,0,0,0-4.782,6.758v10.08a.967.967,0,1,0,1.934,0V54.953a5.241,5.241,0,0,1,3.491-4.935l7.858-2.774.966,1.288L21.471,50.1a3.053,3.053,0,0,0-.23,2.954l2.22,4.811H20.533v-1.1a.967.967,0,0,0-1.934,0v1.1H14.4a.967.967,0,0,0-.967.967v6.2A.967.967,0,0,0,14.4,66H24.733a.967.967,0,0,0,.967-.967V62.718l1.255,2.72a.967.967,0,0,0,1.756-.81L23,52.245a1.107,1.107,0,0,1,.083-1.071L24.5,49.036a.967.967,0,0,0-.031-1.116l-2.023-2.7a.5.5,0,0,1,.186-.748l3.524-1.662,2.1,8a.967.967,0,1,0,1.87-.491l-.081-.308a9.247,9.247,0,0,0,5.893,0L33,61.23l-1.782-6.779a.967.967,0,1,0-1.87.491l2.717,10.337a.967.967,0,0,0,1.87,0l5.9-22.466,3.524,1.662a.5.5,0,0,1,.185.748l-2.023,2.7a.967.967,0,0,0-.031,1.116l1.425,2.138A1.107,1.107,0,0,1,43,52.245L37.289,64.628a.967.967,0,1,0,1.756.81L44.76,53.055a3.053,3.053,0,0,0-.23-2.954l-1.046-1.569.966-1.288,7.858,2.774A5.241,5.241,0,0,1,55.8,54.953v10.08a.967.967,0,1,0,1.934,0V54.953A7.178,7.178,0,0,0,52.952,48.195ZM23.766,64.066h-8.4V59.8H18.6v.067a.967.967,0,1,0,1.934,0V59.8h3.233v4.266ZM50.659,34.405a1.091,1.091,0,0,1-.646.58,70.467,70.467,0,0,1-8.343,2.271A14.386,14.386,0,0,0,47.4,25.766V21.031q1.091.222,2.2.4V26.8a18.592,18.592,0,0,0,1.087,6.777A1.041,1.041,0,0,1,50.659,34.405ZM38.233,41.317l-1.66,6.316a7.306,7.306,0,0,1-7.147,0l-1.66-6.315V39.182a14.4,14.4,0,0,0,10.466,0v2.135ZM33,38.233A12.48,12.48,0,0,1,20.534,25.767V21.633a.967.967,0,0,0-1.934,0v4.133a14.386,14.386,0,0,0,5.729,11.489,70.526,70.526,0,0,1-8.343-2.271,1.09,1.09,0,0,1-.646-.58,1.041,1.041,0,0,1-.027-.828A18.6,18.6,0,0,0,16.4,26.8V19.526c.149-.025.291-.052.332-.063a34.177,34.177,0,0,0,10.919-5.772,2.078,2.078,0,0,1,2.554-.026,40.069,40.069,0,0,0,9.684,5.2.967.967,0,0,0,.686-1.808,38.117,38.117,0,0,1-9.215-4.946,4.01,4.01,0,0,0-4.928.075,32.892,32.892,0,0,1-10,5.343,16.6,16.6,0,0,1,33.168,1v.938a48.757,48.757,0,0,1-4.974-1.088.967.967,0,0,0-.514,1.864q.671.185,1.354.351v5.168A12.481,12.481,0,0,1,33,38.233Z"/>
            </g>
          </g>
          <g id="Group_105" data-name="Group 105">
            <g id="Group_104" data-name="Group 104">
              <path id="Path_138" data-name="Path 138" d="M27.833,19.633H25.767a.967.967,0,0,0,0,1.934h2.067a.967.967,0,1,0,0-1.934Z"/>
            </g>
          </g>
          <g id="Group_107" data-name="Group 107">
            <g id="Group_106" data-name="Group 106">
              <path id="Path_139" data-name="Path 139" d="M40.233,19.633H38.167a.967.967,0,1,0,0,1.934h2.067a.967.967,0,1,0,0-1.934Z"/>
            </g>
          </g>
          <g id="Group_109" data-name="Group 109">
            <g id="Group_108" data-name="Group 108">
              <path id="Path_140" data-name="Path 140" d="M51.6,58.383H49.983V56.766a.967.967,0,0,0-1.934,0v1.616H46.433a.967.967,0,0,0,0,1.934H48.05v1.616a.967.967,0,0,0,1.934,0V60.316H51.6a.967.967,0,1,0,0-1.934Z"/>
            </g>
          </g>
          <g id="Group_111" data-name="Group 111">
            <g id="Group_110" data-name="Group 110">
              <path id="Path_141" data-name="Path 141" d="M26.8,22.733a.967.967,0,0,0-.967.967v1.033a.967.967,0,0,0,1.934,0V23.7A.967.967,0,0,0,26.8,22.733Z"/>
            </g>
          </g>
          <g id="Group_113" data-name="Group 113">
            <g id="Group_112" data-name="Group 112">
              <path id="Path_142" data-name="Path 142" d="M39.2,22.733a.967.967,0,0,0-.967.967v1.033a.967.967,0,0,0,1.934,0V23.7A.967.967,0,0,0,39.2,22.733Z"/>
            </g>
          </g>
          <g id="Group_115" data-name="Group 115">
            <g id="Group_114" data-name="Group 114">
              <path id="Path_143" data-name="Path 143" d="M37.65,28.413h-9.3a.967.967,0,0,0-.967.967A5.383,5.383,0,0,0,33,34.48a5.383,5.383,0,0,0,5.617-5.1A.967.967,0,0,0,37.65,28.413ZM33,32.546a3.676,3.676,0,0,1-3.508-2.2h7.015A3.676,3.676,0,0,1,33,32.546Z"/>
            </g>
          </g>
        </g>
      </g>
      <g id="Mask_Group_24" data-name="Mask Group 24" class="cls-11" transform="translate(80 110)">
        <g id="doctor_3_" data-name="doctor (3)" transform="translate(310 650)">
          <g id="Group_116" data-name="Group 116">
            <path id="Path_145" data-name="Path 145" d="M37.318,32.329a5.446,5.446,0,0,0,3.875-1.606.967.967,0,1,0-1.367-1.367,3.545,3.545,0,0,1-5.017,0,.967.967,0,1,0-1.367,1.367A5.445,5.445,0,0,0,37.318,32.329Z"/>
            <path id="Path_146" data-name="Path 146" d="M31.517,24.089a.967.967,0,0,0,.967-.967V20.355a.967.967,0,1,0-1.934,0v2.767A.967.967,0,0,0,31.517,24.089Z"/>
            <path id="Path_147" data-name="Path 147" d="M43.119,24.089a.967.967,0,0,0,.967-.967V20.355a.967.967,0,1,0-1.934,0v2.767A.967.967,0,0,0,43.119,24.089Z"/>
            <path id="Path_148" data-name="Path 148" d="M35.862,26.855h1.456a.967.967,0,0,0,0-1.934h-.1l1.015-2.951a.967.967,0,0,0-1.828-.629l-1.456,4.232a.967.967,0,0,0,.914,1.281Z"/>
            <path id="Path_149" data-name="Path 149" d="M60.263,56.4a.967.967,0,0,0,.967-.967V45.761a7.42,7.42,0,0,0-7.412-7.412H52.529a8.635,8.635,0,0,0-.258-8.633,4.841,4.841,0,0,0,3.739-4.707V23.569A4.824,4.824,0,0,0,54.3,19.886V12.939a11.62,11.62,0,0,0-14-11.372A12.2,12.2,0,0,0,34.3,0H32.572A12.252,12.252,0,0,0,20.334,12.238v7.648a4.824,4.824,0,0,0-1.707,3.682v1.439a4.839,4.839,0,0,0,4.834,4.834h1.47a11.841,11.841,0,0,0,3.024,4.4,7.438,7.438,0,0,0-5.264,4.11H20.818a7.368,7.368,0,0,0-1.756.212V32.742a1.612,1.612,0,0,0-1.547-1.608V29.391A1.613,1.613,0,0,0,15.9,27.779H15V18.691a.967.967,0,0,0-1.934,0v9.088h-.9a1.613,1.613,0,0,0-1.611,1.611v1.743a1.612,1.612,0,0,0-1.547,1.608v1.869H8.521A3.756,3.756,0,0,0,4.77,38.363v6.676a3.756,3.756,0,0,0,3.752,3.752h2.935v1.1a.967.967,0,0,0,1.934,0v-1.1h1.289v6.7H13.39V54.4a.967.967,0,0,0-1.934,0v1.1h-.709a1.613,1.613,0,0,0-1.611,1.611v2.063a1.613,1.613,0,0,0,1.611,1.611h2.659v2.965A2.259,2.259,0,0,0,15.662,66H58.974a2.259,2.259,0,0,0,2.256-2.256v-3.8a.967.967,0,0,0-1.934,0v3.8a.323.323,0,0,1-.322.322H15.662a.323.323,0,0,1-.322-.322V60.779h1.982a1.613,1.613,0,0,0,1.611-1.611V57.105a1.613,1.613,0,0,0-1.611-1.611h-.709v-6.7h2.9a.967.967,0,0,0,0-1.934h-.451V40.572a5.441,5.441,0,0,1,1.756-.29h1.267a7.418,7.418,0,0,0-.1,1.226v6.84a4.189,4.189,0,1,0,1.934,0v-6.84a5.474,5.474,0,0,1,.14-1.226h6l5.866,10.154a1.611,1.611,0,0,0,2.79,0l5.866-10.154h6.058a5.474,5.474,0,0,1,.14,1.226v6.418a4.842,4.842,0,0,0-3.867,4.737v7.93a.967.967,0,0,0,.967.967H49.67a.967.967,0,0,0,0-1.934h-.827V52.662a2.9,2.9,0,0,1,5.8,0v6.964h-.827a.967.967,0,1,0,0,1.934h1.793a.967.967,0,0,0,.967-.967v-7.93a4.842,4.842,0,0,0-3.867-4.737V41.508a7.418,7.418,0,0,0-.1-1.226h1.211A5.485,5.485,0,0,1,59.3,45.761V55.43a.966.966,0,0,0,.967.967ZM12.488,29.713h3.094v1.418H12.488Zm.395,9.963a.653.653,0,0,1,0,1.05,1.217,1.217,0,0,0,0,1.948.653.653,0,0,1,0,1.052,1.217,1.217,0,0,0,0,1.947.645.645,0,0,1,.266.526.659.659,0,0,1-.658.658H8.522A1.82,1.82,0,0,1,6.7,45.039V38.363a1.82,1.82,0,0,1,1.818-1.818h3.969a.658.658,0,0,1,.658.658.645.645,0,0,1-.267.526,1.217,1.217,0,0,0,0,1.947ZM17,57.428v1.418H11.07V57.428Zm.129-10.57H14.994A2.568,2.568,0,0,0,14.6,44.7a2.549,2.549,0,0,0,.415-.937h2.109Zm0-5.027H14.689c-.027-.044-.055-.087-.085-.129a2.593,2.593,0,0,0,0-3,2.566,2.566,0,0,0,.477-1.5,2.594,2.594,0,0,0-2.591-2.591h-1.55V33.064h6.188ZM25.2,52.423a2.256,2.256,0,1,1-2.256-2.256A2.259,2.259,0,0,1,25.2,52.423ZM23.461,27.908a2.9,2.9,0,0,1-2.9-2.9V23.569a2.9,2.9,0,0,1,2.9-2.9h.659v4.876a11.805,11.805,0,0,0,.238,2.364Zm.659-10.842v1.668h-.659a4.829,4.829,0,0,0-1.193.149V12.238a10.316,10.316,0,0,1,10.3-10.3H34.3a10.252,10.252,0,0,1,8.111,3.948.967.967,0,1,0,1.521-1.194A12.442,12.442,0,0,0,42.61,3.256h.074a9.7,9.7,0,0,1,9.684,9.684v5.945a4.824,4.824,0,0,0-1.193-.149h-.659V17.066a6.134,6.134,0,0,0-4.017-5.75,12.24,12.24,0,0,0-.379-2.245.967.967,0,1,0-1.868.5,10.293,10.293,0,0,1,.268,1.376c-.042,0-.084,0-.126,0H30.243a6.13,6.13,0,0,0-6.123,6.123Zm1.934,8.478V17.066a4.194,4.194,0,0,1,4.189-4.189h14.15a4.194,4.194,0,0,1,4.189,4.189v8.478a9.872,9.872,0,0,1-9.861,9.861H35.915A9.872,9.872,0,0,1,26.053,25.545Zm-1.131,12.8a5.474,5.474,0,0,1,4.472-2.319h1.126a11.706,11.706,0,0,0,2.351.91v1.409Zm12.4,10.637-1.908-3.3-.9-1.56a14,14,0,0,0,5.618,0Zm4.2-7.277a11.91,11.91,0,0,1-8.409,0l-.824-1.426h1.548a.967.967,0,0,0,.967-.967v-2.03c.366.034.736.054,1.11.054h2.807c.375,0,.745-.02,1.11-.054v2.03a.967.967,0,0,0,.967.967h1.548Zm2.5-3.359H41.765V36.94a11.709,11.709,0,0,0,2.351-.91H45.3a5.475,5.475,0,0,1,4.472,2.319Zm7.067-1.46a7.421,7.421,0,0,0-4.4-2.658,11.841,11.841,0,0,0,3.015-4.388h.263a6.7,6.7,0,0,1,1.12,7.046Zm.087-8.98h-.9a11.805,11.805,0,0,0,.238-2.364V20.668h.659a2.9,2.9,0,0,1,2.9,2.9v1.439A2.9,2.9,0,0,1,51.176,27.908Z"/>
          </g>
        </g>
      </g>
      <g id="Mask_Group_25" data-name="Mask Group 25" class="cls-12" transform="translate(373 514)">
        <g id="ophthalmologist-2" data-name="ophthalmologist" transform="translate(16.569)">
          <g id="Group_118" data-name="Group 118">
            <g id="Group_117" data-name="Group 117">
              <path id="Path_150" data-name="Path 150" d="M10.3,62.625l9.252-3.053V58.21H21.7v2L23.3,66.564l4.343-5.16h3.158l4.343,5.16,1.6-6.355v-2H38.9v1.362l9.252,3.053a11.721,11.721,0,0,1,7.927,9.184l2.371,14.079H0L2.371,71.809A11.714,11.714,0,0,1,10.3,62.625ZM28.151,83.759V66.727H30.3V83.759H46.317l-.957-9.474,2.14-.212.978,9.687h7.434l-1.953-11.6a9.591,9.591,0,0,0-6.486-7.514l-6.42-2.118V72.2a4.3,4.3,0,1,1-2.151,0V61.816l-.314-.1-2.383,9.435L29.8,63.533H28.655l-6.41,7.614-2.383-9.435-.314.1v8.511l4.074,2.017A4.228,4.228,0,0,1,26,76.152v1.22a4.284,4.284,0,0,1-4.3,4.258H20.624V79.5H21.7a2.142,2.142,0,0,0,2.151-2.129v-1.22a2.114,2.114,0,0,0-1.188-1.9l-4.188-2.073-4.188,2.073a2.115,2.115,0,0,0-1.188,1.9v1.22A2.142,2.142,0,0,0,15.247,79.5h1.075V81.63H15.247a4.288,4.288,0,0,1-2.792-1.046l-.32,3.175Zm11.828-9.581a2.129,2.129,0,1,0,2.151,2.129A2.142,2.142,0,0,0,39.978,74.178ZM9.973,83.759l.978-9.687.52.051a4.255,4.255,0,0,1,1.852-1.78L17.4,70.327v-7.8l-6.422,2.118A9.593,9.593,0,0,0,4.49,72.159l-1.952,11.6Z" transform="translate(8.409 -19.888)"/>
              <path id="Path_151" data-name="Path 151" d="M48.2,28.828a11.614,11.614,0,0,1-2.989,4.995l-4.194,4.151a5.37,5.37,0,0,1-3.8,1.56H32.18a5.37,5.37,0,0,1-3.8-1.56l-4.194-4.151A11.614,11.614,0,0,1,21.2,28.828,5.272,5.272,0,0,1,18.6,19.307h-.033V16.114a16.13,16.13,0,0,1,32.258,0v3.194H50.8A5.272,5.272,0,0,1,48.2,28.828ZM22.873,25.542a9.472,9.472,0,0,0,2.834,6.776L29.9,36.468a3.26,3.26,0,0,0,2.281.936h5.04a3.262,3.262,0,0,0,2.281-.936L43.7,32.318a9.47,9.47,0,0,0,2.834-6.775V20.372H38.578a13.94,13.94,0,0,1-7.1-1.935,13.947,13.947,0,0,1-7.1,1.935h-1.5Zm-4.3-1.977a3.19,3.19,0,0,0,2.2,3.013c-.03-.343-.051-.687-.051-1.036V20.568A3.192,3.192,0,0,0,18.572,23.565Zm30.108-7.452a13.979,13.979,0,0,0-27.957,0V18.35a5.424,5.424,0,0,1,1.075-.108h2.575a11.787,11.787,0,0,0,6.506-1.95l.6-.394.6.394a11.781,11.781,0,0,0,6.505,1.95H47.6a5.424,5.424,0,0,1,1.075.108V16.114Zm0,4.454v4.974c0,.348-.02.693-.051,1.036a3.163,3.163,0,0,0,.051-6.01Z" transform="translate(2.934 -0.146)"/>
              <path id="Path_152" data-name="Path 152" d="M86.851.146V2.275H62.12V44.856h8.6v2.129H59.969V.146Z" transform="translate(-59.969 -0.146)"/>
              <path id="Path_153" data-name="Path 153" d="M78.787,20.469H71.26V18.34h5.376V16.21H71.26V14.081h5.376V11.952H71.26V9.823h7.527Z" transform="translate(-59.432 -3.436)"/>
              <path id="Path_154" data-name="Path 154" d="M82.55,40.985V38.856h7.527V49.5H82.55V47.372h5.376V45.243H82.55V43.114h5.376V40.985Z" transform="translate(-78.249 -13.307)"/>
              <path id="Path_155" data-name="Path 155" d="M63.733,49.565h4.3v2.129H61.582V45.307h2.151Z" transform="translate(-42.227 -15.501)"/>
            </g>
          </g>
        </g>
      </g>
      <g id="Mask_Group_26" data-name="Mask Group 26" class="cls-13" transform="translate(373 596)">
        <g id="otolaryngologist-2" data-name="otolaryngologist" transform="translate(16.981 0)">
          <path id="Path_156" data-name="Path 156" d="M5.839,36.937A.968.968,0,0,1,7.09,38.413a14.508,14.508,0,1,0,3.259-2.088.968.968,0,0,1-.818-1.754,16.353,16.353,0,0,1,6.962-1.539,16.522,16.522,0,0,1,15.84,11.9l2.162-.882v-3.76A12.508,12.508,0,0,1,29.27,30.136v-1.2A4.444,4.444,0,0,1,26.2,21.527L26,12.492a12.229,12.229,0,0,1,1.221-5.609.968.968,0,1,1,1.741.846,10.284,10.284,0,0,0-1.027,4.718l.176,7.825a4.419,4.419,0,0,1,1.164-.222V18.877a3.272,3.272,0,0,1,.79-2.131A5.329,5.329,0,0,1,34.1,14.889h7.034a5.769,5.769,0,0,0,3.909-1.521l3.387-3.106a1.258,1.258,0,0,1,1.685-.016l.806.71a9.426,9.426,0,0,1,3.192,7.068v2.027a4.426,4.426,0,0,1,.861.131l.307-8.052a5.313,5.313,0,0,0-4.957-5.54l-1.6-.113a2.652,2.652,0,0,1-1.263-.426L43.777,3.637A10.218,10.218,0,0,0,31.2,4.7.968.968,0,0,1,29.88,3.279,12.15,12.15,0,0,1,44.838,2.018l3.688,2.416a.713.713,0,0,0,.339.114l1.6.113a7.273,7.273,0,0,1,6.754,7.546l-.343,9a4.445,4.445,0,0,1-2.758,7.723v.5a13.555,13.555,0,0,1-.378,3.177.968.968,0,0,1-1.881-.454,11.62,11.62,0,0,0,.324-2.723V18.024a7.49,7.49,0,0,0-2.536-5.616l-.35-.309-2.939,2.7a7.7,7.7,0,0,1-5.217,2.03H34.1a3.4,3.4,0,0,0-2.577,1.183,1.335,1.335,0,0,0-.323.87V30.136a10.591,10.591,0,0,0,13.335,10.2,11.665,11.665,0,0,0,5.8-4.638.968.968,0,1,1,1.628,1.046A13.564,13.564,0,0,1,48.895,40.1v2.163a5.2,5.2,0,0,1,3.929,3.385l3.485,1.422A15.578,15.578,0,0,1,66.038,61.55v3.477a.968.968,0,0,1-1.935,0V61.55a13.65,13.65,0,0,0-8.525-12.686l-2.462-1v6.077a4.036,4.036,0,1,1-1.935,0s-.005-6.775-.014-6.873l-2.88-1.175q-.243.2-.495.387V65.026a.968.968,0,0,1-1.935,0V47.4a10.323,10.323,0,0,1-8.976-.319V65.027a.968.968,0,0,1-1.935,0V45.954l-2.179.889A16.493,16.493,0,1,1,5.839,36.937ZM27,24.492a2.515,2.515,0,0,0,2.273,2.5v-5A2.515,2.515,0,0,0,27,24.492Zm29.392,0a2.515,2.515,0,0,0-2.273-2.5v5A2.515,2.515,0,0,0,56.389,24.492ZM50.047,57.855a2.1,2.1,0,1,0,2.1-2.1A2.1,2.1,0,0,0,50.047,57.855ZM46.96,44.474V41.363a13.385,13.385,0,0,1-1.8.806c-.025.009-.05.017-.076.024a12.573,12.573,0,0,1-7.5-.293c-.394-.14-.776-.3-1.149-.476v3.05A8.373,8.373,0,0,0,46.96,44.474Z" transform="translate(0 -0.019)"/>
          <path id="Path_157" data-name="Path 157" d="M21.117,27.083H17.425a2.239,2.239,0,0,1-2.237-2.237V22.375a2.239,2.239,0,0,1,2.237-2.237h3.692a2.237,2.237,0,0,1,2.013,1.269h2.541a2.237,2.237,0,0,1,2.013-1.269h3.692a2.239,2.239,0,0,1,2.237,2.237v2.472a2.239,2.239,0,0,1-2.237,2.237H27.684a2.239,2.239,0,0,1-2.237-2.237v-1.5H23.353v1.5a2.239,2.239,0,0,1-2.237,2.237Zm.3-4.708a.3.3,0,0,0-.3-.3H17.425a.3.3,0,0,0-.3.3v2.472a.3.3,0,0,0,.3.3h3.692a.3.3,0,0,0,.3-.3Zm5.965,2.472a.3.3,0,0,0,.3.3h3.692a.3.3,0,0,0,.3-.3V22.375a.3.3,0,0,0-.3-.3H27.684a.3.3,0,0,0-.3.3Z" transform="translate(17.237 -0.019)"/>
          <path id="Path_158" data-name="Path 158" d="M51.08,37.279a7.54,7.54,0,0,1,7.532,7.532V57.939a4.312,4.312,0,0,1-8.623,0V57.6a.5.5,0,0,0-.15-.354l-4-3.881a7.572,7.572,0,0,1-2.289-5.407V44.811a7.54,7.54,0,0,1,7.532-7.532Zm-5.6,10.676a5.627,5.627,0,0,0,1.7,4.018l4,3.881a2.441,2.441,0,0,1,.738,1.743v.343a2.376,2.376,0,0,0,4.753,0V44.811a5.6,5.6,0,0,0-11.193,0v3.144Z" transform="translate(-36.122 -0.019)"/>
          <path id="Path_159" data-name="Path 159" d="M51.08,41.394A3.421,3.421,0,0,1,54.5,44.811a.968.968,0,1,1-1.935,0,1.482,1.482,0,1,0-2.964,0v3.144a1.49,1.49,0,0,0,.45,1.064l4,3.88q.093.09.182.183a.968.968,0,0,1,.266.667v1.7a.968.968,0,1,1-1.935,0v-1.3L48.7,50.409a3.436,3.436,0,0,1-1.038-2.453V44.811a3.421,3.421,0,0,1,3.417-3.417Z" transform="translate(-36.122 -0.019)"/>
          <path id="Path_160" data-name="Path 160" d="M48.979,50.238a.968.968,0,0,1-.968-.968v-.324l-.066-.066a.968.968,0,0,1,1.369-1.368l.349.349a.968.968,0,0,1,.283.684v.725a.967.967,0,0,1-.968.967Z" transform="translate(-31.571 -0.019)"/>
        </g>
      </g>
      <g id="Mask_Group_27" data-name="Mask Group 27" class="cls-12" transform="translate(276 514)">
        <g id="dentist-2" data-name="dentist" transform="translate(16.634 0)">
          <g id="Group_120" data-name="Group 120" transform="translate(47.728 18.152)">
            <g id="Group_119" data-name="Group 119">
              <path id="Path_161" data-name="Path 161" d="M13.285,18.518a1.067,1.067,0,0,1,1.064,1.064v.585a1.257,1.257,0,0,0,1.223,1.277h.013a1.3,1.3,0,0,0,1.29-1.277v-.585a1.064,1.064,0,1,1,2.128,0v.585a3.428,3.428,0,0,1-1.024,2.407,3.341,3.341,0,0,1-2.38,1,3.38,3.38,0,0,1-3.378-3.4v-.585A1.067,1.067,0,0,1,13.285,18.518Z" transform="translate(-12.221 -18.518)"/>
            </g>
          </g>
          <g id="Group_122" data-name="Group 122" transform="translate(36.025 18.166)">
            <g id="Group_121" data-name="Group 121">
              <path id="Path_162" data-name="Path 162" d="M24.988,18.531A1.067,1.067,0,0,1,26.052,19.6v.585a1.263,1.263,0,1,0,2.527,0V19.6a1.064,1.064,0,1,1,2.128,0v.585a3.391,3.391,0,1,1-6.782,0V19.6A1.067,1.067,0,0,1,24.988,18.531Z" transform="translate(-23.924 -18.531)"/>
            </g>
          </g>
          <g id="Group_124" data-name="Group 124">
            <g id="Group_123" data-name="Group 123">
              <path id="Path_163" data-name="Path 163" d="M15.586,35.208a15.494,15.494,0,0,1,12.421,6.157,10.318,10.318,0,0,1,5.559-1.636h5.652V37.867a14.732,14.732,0,0,1-6.051-4.987,14.537,14.537,0,0,1-2.646-7.54,3.784,3.784,0,0,1-.08-7.367V11.8H28.259A1.067,1.067,0,0,1,27.2,10.739,10.4,10.4,0,0,1,37.568.366h9.575a5.639,5.639,0,0,1,4.043,1.662A4.955,4.955,0,0,1,51.957,3c4.748.226,7.208,3.8,7.926,7.181v.027a4.864,4.864,0,0,1,.066.758V17.92A3.6,3.6,0,0,1,61.97,18.97a3.8,3.8,0,0,1-2.048,6.436,14.76,14.76,0,0,1-9.282,12.7v1.622h5.652A10.5,10.5,0,0,1,66.731,50.195V63.214a1.137,1.137,0,0,1-1.09,1.117H23.857a1.047,1.047,0,0,1-.4-.106,15.578,15.578,0,1,1-7.873-29.017ZM59.962,23.186a1.567,1.567,0,0,0,1.011-1.529,1.671,1.671,0,0,0-.492-1.184,1.4,1.4,0,0,0-.519-.359Zm-29.788-2.7a1.631,1.631,0,0,0-.505,1.17,1.832,1.832,0,0,0,.785,1.4V20.26C30.44,20.313,30.254,20.393,30.174,20.486ZM50.374,4.5a3.393,3.393,0,0,0-.692-.971,3.559,3.559,0,0,0-2.54-1.037H37.568A8.173,8.173,0,0,0,29.4,9.675h17.74c.04,0,.066-.013.106-.013s.066-.013.106-.013A3.588,3.588,0,0,0,50.374,4.5Zm7.46,6.463a2.808,2.808,0,0,0-.027-.346,8.233,8.233,0,0,0-1.489-3.258,5.6,5.6,0,0,0-3.524-2.128,5.7,5.7,0,0,1-3.471,6.117,11.655,11.655,0,0,0,8.511,3.883Zm-3.7,22.355a12.531,12.531,0,0,0,3.7-8.937V17.388A13.923,13.923,0,0,1,46.9,11.8H32.568v12.58a12.649,12.649,0,0,0,21.57,8.936ZM46.265,62.2H64.617V50.195a8.307,8.307,0,0,0-7.846-8.272v2.859a4.918,4.918,0,0,1,2.593,1.423,5.207,5.207,0,0,1,1.529,3.724v5.865a1.046,1.046,0,0,1-1.011,1.09H58.207a1.064,1.064,0,0,1,0-2.128h.559V49.929a3.082,3.082,0,0,0-.891-2.221,3.023,3.023,0,0,0-2.141-.931h-.04a3.2,3.2,0,0,0-3.178,3.152v4.827h1.077a1.064,1.064,0,0,1,0,2.128h-2.1a1.125,1.125,0,0,1-1.1-1.09V49.929a5.293,5.293,0,0,1,4.255-5.16V41.857H50.055l-3.79,4.1V62.2Zm2.261-21.769V38.758a14.563,14.563,0,0,1-7.181-.133v1.769l3.777,3.617ZM44.137,62.2h0V45.979l-4.269-4.122H37.887v5.612a4.262,4.262,0,1,1-4.069,1.13,4.589,4.589,0,0,1,1.955-1.13V41.857H33.578a8.212,8.212,0,0,0-4.4,1.29A15.7,15.7,0,0,1,26.211,62.2H44.137Zm-7.261-12.74a2.161,2.161,0,1,0,1.529.625A2.185,2.185,0,0,0,36.876,49.463ZM15.586,64.225a13.437,13.437,0,1,0-11.25-6.1A13.439,13.439,0,0,0,15.586,64.225Z" transform="translate(0 -0.366)"/>
            </g>
          </g>
          <g id="Group_126" data-name="Group 126" transform="translate(5.7 41.834)">
            <g id="Group_125" data-name="Group 125">
              <path id="Path_164" data-name="Path 164" d="M47.063,42.242a4.873,4.873,0,0,1,.984-.027,12.85,12.85,0,0,1,2.553.452,1.066,1.066,0,0,1-.545,2.061,11.942,11.942,0,0,0-2.168-.386,3.186,3.186,0,0,0-3.418,2.926,2.87,2.87,0,0,0,.013.585A27.776,27.776,0,0,0,48.22,58.666l2.168-3.99a1.594,1.594,0,0,1,1.423-.851,1.611,1.611,0,0,1,1.436.891L55.188,58.6A27.789,27.789,0,0,0,58.9,47.854a3.2,3.2,0,0,0-2.846-3.511,2.278,2.278,0,0,0-.426-.013c-.2.226-.386.465-.572.7-1,1.33-2.859,3.79-6.436,3.338a1.059,1.059,0,0,1,.266-2.1c2.354.293,3.537-1.263,4.468-2.513.6-.8,1.117-1.476,1.942-1.543a5.319,5.319,0,0,1,5.718,4.894,4.868,4.868,0,0,1-.013.984,30.291,30.291,0,0,1-4.482,12.434,1.608,1.608,0,0,1-1.45.771,1.59,1.59,0,0,1-1.356-.891L51.8,56.565l-2.128,3.91a1.615,1.615,0,0,1-1.37.851h-.053a1.629,1.629,0,0,1-1.383-.771,30.51,30.51,0,0,1-4.508-12.461A5.314,5.314,0,0,1,47.063,42.242Z" transform="translate(-42.323 -42.2)"/>
            </g>
          </g>
        </g>
      </g>
      <g id="Mask_Group_28" data-name="Mask Group 28" class="cls-12" transform="translate(276 596)">
        <path id="surgeon-2" data-name="surgeon" d="M16.167,41.228a26.431,26.431,0,0,1,3.7-.535l5.513-2.757a1.319,1.319,0,0,0,.734-1.187V31.925a10.313,10.313,0,0,1-5.335-7.073,5.066,5.066,0,0,1-.211-9.991V12.468a.972.972,0,1,1,1.943,0v.424H44.342V7.107a5.169,5.169,0,0,0-5.163-5.163H27.68a5.169,5.169,0,0,0-5.163,5.163v.957a.972.972,0,1,1-1.943,0V7.107A7.115,7.115,0,0,1,27.68,0h11.5a7.115,7.115,0,0,1,7.106,7.106v7.766a5.066,5.066,0,0,1-.209,9.972,10.368,10.368,0,0,1-5.391,7.112v4.792a1.321,1.321,0,0,0,.735,1.188l5.593,2.8A26.187,26.187,0,0,1,51,41.61,14.535,14.535,0,0,1,60.427,55.2v8.116A2.686,2.686,0,0,1,57.745,66H53.6a.972.972,0,0,1,0-1.943h4.148a.741.741,0,0,0,.74-.74V55.2a12.581,12.581,0,0,0-6.92-11.225v7.994h.469a3.564,3.564,0,0,1,3.56,3.56v3.232A2.137,2.137,0,0,1,53.458,60.9h-.851a.972.972,0,1,1,0-1.943h.851a.192.192,0,0,0,.191-.191V55.531a1.619,1.619,0,0,0-1.617-1.617h-2.88a1.619,1.619,0,0,0-1.617,1.617v3.232a.192.192,0,0,0,.191.191h.851a.972.972,0,1,1,0,1.943h-.851a2.137,2.137,0,0,1-2.134-2.134V55.531a3.564,3.564,0,0,1,3.56-3.56h.469V43.191a12.526,12.526,0,0,0-3.7-.557h-.891c-4.015,3.216-7.842,4.825-11.61,4.825s-7.475-1.609-11.25-4.825H20.084a12.562,12.562,0,0,0-2.63.278v8.9a4.463,4.463,0,1,1-1.943,0V43.5A12.588,12.588,0,0,0,7.516,55.2v8.116a.741.741,0,0,0,.74.74H49.192a.972.972,0,1,1,0,1.943H8.256a2.686,2.686,0,0,1-2.683-2.683V55.2A14.537,14.537,0,0,1,16.167,41.228ZM13.962,56.165a2.52,2.52,0,1,0,2.52-2.52A2.523,2.523,0,0,0,13.962,56.165Zm4.431-36.326a3.13,3.13,0,0,0,2.181,2.978c0-.013,0-.025,0-.038V16.862A3.129,3.129,0,0,0,18.393,19.839Zm30.019,0a3.133,3.133,0,0,0-2.127-2.958v5.9c0,.007,0,.013,0,.02A3.129,3.129,0,0,0,48.413,19.839Zm-4.134,3.976c.042-.344.064-8.98.064-8.98H22.516s.021,8.636.064,8.98a8.377,8.377,0,0,0,8.311,7.34h5.075a8.312,8.312,0,0,0,3.358-.7,8.4,8.4,0,0,0,4.954-6.64Zm-.643,17.443.016-.033-3.1-1.549a3.254,3.254,0,0,1-1.809-2.926V32.718a10.281,10.281,0,0,1-2.776.381H30.891a10.3,10.3,0,0,1-2.828-.395V36.75a3.251,3.251,0,0,1-1.809,2.925l-2.8,1.4a.973.973,0,0,1,.121.205c6.694,5.626,12.919,5.618,20.061-.023Z" transform="translate(17)"/>
      </g>
      <g id="Mask_Group_29" data-name="Mask Group 29" class="cls-14" transform="translate(184 514)">
        <g id="doctor-2" data-name="doctor" transform="translate(24.233)">
          <g id="Group_128" data-name="Group 128" transform="translate(31 20.666)">
            <g id="Group_127" data-name="Group 127">
              <path id="Path_165" data-name="Path 165" d="M26.8,20.666a.967.967,0,0,1,.967.967v1.033a.967.967,0,0,1-1.934,0V21.633A.967.967,0,0,1,26.8,20.666Z" transform="translate(-25.833 -20.666)"/>
            </g>
          </g>
          <g id="Group_130" data-name="Group 130" transform="translate(18.6 20.666)">
            <g id="Group_129" data-name="Group 129">
              <path id="Path_166" data-name="Path 166" d="M39.2,20.666a.967.967,0,0,1,.967.967v1.033a.967.967,0,1,1-1.934,0V21.633A.967.967,0,0,1,39.2,20.666Z" transform="translate(-38.233 -20.666)"/>
            </g>
          </g>
          <g id="Group_132" data-name="Group 132" transform="translate(21.7 27.9)">
            <g id="Group_131" data-name="Group 131">
              <path id="Path_167" data-name="Path 167" d="M29.212,28.188a.966.966,0,0,1,1.367-.009A3.581,3.581,0,0,0,33,28.933a3.581,3.581,0,0,0,2.421-.755.967.967,0,1,1,1.358,1.376A5.464,5.464,0,0,1,33,30.867a5.464,5.464,0,0,1-3.779-1.312A.967.967,0,0,1,29.212,28.188Z" transform="translate(-28.933 -27.9)"/>
            </g>
          </g>
          <g id="Group_134" data-name="Group 134" transform="translate(29.966 17.566)">
            <g id="Group_133" data-name="Group 133">
              <path id="Path_168" data-name="Path 168" d="M25.767,17.566h2.066a.967.967,0,1,1,0,1.934H25.767a.967.967,0,1,1,0-1.934Z" transform="translate(-24.8 -17.566)"/>
            </g>
          </g>
          <g id="Group_136" data-name="Group 136" transform="translate(17.567 17.566)">
            <g id="Group_135" data-name="Group 135">
              <path id="Path_169" data-name="Path 169" d="M38.167,17.566h2.067a.967.967,0,1,1,0,1.934H38.167a.967.967,0,0,1,0-1.934Z" transform="translate(-37.2 -17.566)"/>
            </g>
          </g>
          <g id="Group_138" data-name="Group 138">
            <g id="Group_137" data-name="Group 137">
              <path id="Path_170" data-name="Path 170" d="M12.294,46.05l6.969-2.142A2.217,2.217,0,0,1,20.49,41.79l4.31-2.155V36.563a14.421,14.421,0,0,1-6.061-9.829h-.575a3.663,3.663,0,0,1-3.679-3.188,3.545,3.545,0,0,1,2.048-3.586V9.233A7.175,7.175,0,0,1,23.7,2.067h.163A12.188,12.188,0,0,1,31,0,24.648,24.648,0,0,1,43.024,2.715a41.929,41.929,0,0,0,6.006,2.318.967.967,0,0,1,.621,1.3,8.772,8.772,0,0,1-1.576,2.291c.481.592,1.392,2.107,1.392,5.086V20a3.526,3.526,0,0,1-1.483,6.73h-.722A14.417,14.417,0,0,1,41.2,36.564v3.071l4.31,2.155a2.217,2.217,0,0,1,1.228,2.117l6.968,2.142a7.131,7.131,0,0,1,5.061,6.85V65.033a.967.967,0,0,1-1.934,0V52.9a5.207,5.207,0,0,0-3.7-5L45.889,45.67,44.61,47.376l1.454,1.454a3.029,3.029,0,0,1,.568,3.5l-2.768,5.535H46.5v-1.1a.967.967,0,0,1,1.934,0v1.1h4.2a.967.967,0,0,1,.967.967v6.2a.967.967,0,0,1-.967.967H42.3a.967.967,0,0,1-.967-.967v-2.1l-1.268,2.537a.967.967,0,0,1-1.729-.865L44.9,51.466A1.1,1.1,0,0,0,44.7,50.2L42.649,48.15a.967.967,0,0,1-.09-1.264l2.19-2.92a.3.3,0,0,0-.105-.446l-3.808-1.9-2.688,9.217a.967.967,0,1,1-1.856-.541l.424-1.453a11.312,11.312,0,0,1-7.432,0L33,61.58l2.086-7.153a.967.967,0,1,1,1.856.541L33.928,65.3a.967.967,0,0,1-1.856,0L25.163,41.616l-3.808,1.9a.3.3,0,0,0-.105.446l2.19,2.92a.967.967,0,0,1-.09,1.264L21.3,50.2a1.1,1.1,0,0,0-.206,1.269L27.665,64.6a.967.967,0,1,1-1.73.865L19.368,52.331a3.03,3.03,0,0,1,.568-3.5l1.454-1.454L20.111,45.67,12.862,47.9a5.207,5.207,0,0,0-3.7,5V65.033a.967.967,0,0,1-1.934,0V52.9A7.131,7.131,0,0,1,12.294,46.05ZM43.267,64.066h8.4V59.8H48.433v.067a.967.967,0,1,1-1.934,0V59.8H43.267v4.266ZM42.225,4.476A22.772,22.772,0,0,0,31,1.934c-3.567,0-6.754,1.493-7.414,3.472a.967.967,0,0,1-1.834-.612,4.558,4.558,0,0,1,.2-.491,5.242,5.242,0,0,0-3.48,4.93v10.4h1.1a1.1,1.1,0,0,0,1.1-1.1V17.5A12.317,12.317,0,0,1,24.05,9.583a.968.968,0,0,1,.975-.238c5.367,1.695,12.934,3.123,18.505.3A10.4,10.4,0,0,0,47.3,6.52,47.549,47.549,0,0,1,42.225,4.476ZM26.733,40.1l1.846,6.331a9.38,9.38,0,0,0,8.84,0L39.266,40.1V37.7a14.379,14.379,0,0,1-12.533,0ZM33,37.2A12.48,12.48,0,0,0,45.466,24.733a.967.967,0,1,1,1.934,0V24.8h.583a1.617,1.617,0,0,0,1.608-1.787,1.715,1.715,0,0,0-1.756-1.446h-1.4A3.037,3.037,0,0,1,43.4,18.533V14.884a.967.967,0,1,1,1.934,0v3.649a1.1,1.1,0,0,0,1.1,1.1h1.1V13.711a6.516,6.516,0,0,0-.884-3.765,13.289,13.289,0,0,1-2.094,1.35,18.048,18.048,0,0,1-7.751,1.88,36.59,36.59,0,0,1-11.761-1.8A10.189,10.189,0,0,0,22.6,17.5v1.033a3.037,3.037,0,0,1-3.033,3.033h-1.55a1.617,1.617,0,0,0-1.608,1.787A1.715,1.715,0,0,0,18.164,24.8H18.6v-.056a.967.967,0,0,1,.966-.967h0a.967.967,0,0,1,.967.966A12.483,12.483,0,0,0,33,37.2Z" transform="translate(-7.233)"/>
            </g>
          </g>
          <g id="Group_140" data-name="Group 140" transform="translate(5.167 55.799)">
            <g id="Group_139" data-name="Group 139">
              <path id="Path_171" data-name="Path 171" d="M47.467,58.383h1.616V56.766a.967.967,0,0,1,1.934,0v1.616h1.617a.967.967,0,0,1,0,1.934H51.017v1.616a.967.967,0,1,1-1.934,0V60.316H47.467a.967.967,0,1,1,0-1.934Z" transform="translate(-46.5 -55.799)"/>
            </g>
          </g>
        </g>
      </g>
      <g id="Mask_Group_30" data-name="Mask Group 30" class="cls-14" transform="translate(184 596)">
        <g id="doctor_1_2" data-name="doctor (1)" transform="translate(22.574 0)">
          <path id="Path_172" data-name="Path 172" d="M34.217,38.729c8.5-.277,10.543-7.558,10.979-9.908a3.691,3.691,0,0,0,2.068-1.313,4.155,4.155,0,0,0,.774-2.828,3.9,3.9,0,0,0-.92-3.033,2.853,2.853,0,0,0-.687-.519,15,15,0,0,0,2.235-8.518c-.984-7.034-6.653-7.718-8.428-7.758a8.311,8.311,0,0,0-2.988-2.2,10.53,10.53,0,0,0-6.769-.377c-4.4,1.147-7.327,3.348-8.717,6.541-1.98,4.539-.243,9.763.754,12.109a2.888,2.888,0,0,0-1.03.591,3.782,3.782,0,0,0-1.052,3.169,4.148,4.148,0,0,0,.773,2.828,3.7,3.7,0,0,0,2.069,1.313C23.714,31.171,25.749,38.452,34.217,38.729ZM44.855,22.635a1.276,1.276,0,0,1,.911.324,2.247,2.247,0,0,1,.386,1.687.968.968,0,0,0,.007.189,2.328,2.328,0,0,1-.4,1.532,2.152,2.152,0,0,1-1.509.715.943.943,0,0,0-.829.856c-.031.351-.867,8.634-9.211,8.907-8.3-.273-9.137-8.556-9.168-8.909a.943.943,0,0,0-.829-.854,2.151,2.151,0,0,1-1.509-.715,2.333,2.333,0,0,1-.4-1.54.987.987,0,0,0,.007-.183,2.247,2.247,0,0,1,.425-1.731,1.43,1.43,0,0,1,1.024-.268.943.943,0,0,0,.995-1.376C24.73,21.2,21.277,14.649,23.5,9.555c1.149-2.632,3.658-4.47,7.459-5.462a8.635,8.635,0,0,1,5.537.283,6.341,6.341,0,0,1,2.54,1.987.934.934,0,0,0,.836.377c.244-.02,6.017-.393,6.922,6.061h0s.261,5.134-2.713,8.245a.943.943,0,0,0-.179,1.037.893.893,0,0,0,.893.557Z" transform="translate(-6.767 -1.884)"/>
          <path id="Path_173" data-name="Path 173" d="M24.25,22.657a.943.943,0,0,0,.943-.9c.011-.244.3-5.94,4.556-6.488A14.356,14.356,0,0,0,40.7,12.095c1.2.9,3.972,3.653,3.439,9.514a.943.943,0,0,0,1.874.171c.782-8.6-4.741-11.585-4.975-11.707a.943.943,0,0,0-1.088.155A12.592,12.592,0,0,1,29.93,13.388a1.054,1.054,0,0,0-.261-.009c-4.793.5-6.258,5.649-6.361,8.3a.943.943,0,0,0,.9.979Z" transform="translate(-7.083 -1.884)"/>
          <path id="Path_174" data-name="Path 174" d="M8.4,67.884H61.368a.943.943,0,0,0,.943-.943V56.43a12.547,12.547,0,0,0-12.54-12.522h-1.81a.943.943,0,1,0,0,1.886h1.81A10.66,10.66,0,0,1,60.425,56.43V66H9.344V56.43A10.648,10.648,0,0,1,19.981,45.794h1.94a.943.943,0,1,0,0-1.886h-1.94A12.54,12.54,0,0,0,7.459,56.43V66.941A.943.943,0,0,0,8.4,67.884Z" transform="translate(-7.459 -1.884)"/>
          <path id="Path_175" data-name="Path 175" d="M48.435,67.884a.943.943,0,0,0,.932-1.083L45.552,41.549a.943.943,0,0,0-1.2-.762l-6.585,1.985a.943.943,0,0,0-.573,1.32l2.617,5.252-1.518,1.7A.943.943,0,0,0,38.2,52.17l9.439,15.267A.943.943,0,0,0,48.435,67.884ZM43.849,42.906,46.815,62.53l-6.65-10.748,1.474-1.655a.943.943,0,0,0,.14-1.047l-2.4-4.822Z" transform="translate(-24.16 -1.884)"/>
          <path id="Path_176" data-name="Path 176" d="M21.219,67.884a.943.943,0,0,0,.8-.447l9.442-15.264a.943.943,0,0,0-.094-1.123l-1.518-1.7,2.617-5.252a.943.943,0,0,0-.573-1.32L25.31,40.79a.943.943,0,0,0-1.2.762L20.289,66.8a.943.943,0,0,0,.93,1.08Zm8.271-16.105L22.84,62.527,25.8,42.906l4.473,1.348-2.4,4.822a.943.943,0,0,0,.14,1.047Z" transform="translate(9.467 -1.884)"/>
          <path id="Path_177" data-name="Path 177" d="M34.734,50.3a51.114,51.114,0,0,0,6.1-.37.943.943,0,1,0-.224-1.872,47.535,47.535,0,0,1-11.6,0,.943.943,0,1,0-.236,1.871,47.613,47.613,0,0,0,5.964.37Z" transform="translate(-7.324 -1.884)"/>
          <path id="Path_178" data-name="Path 178" d="M40.364,42.632a.943.943,0,0,0,.754-.382c1.4-1.894,1.655-5.649,1.678-6.07a.943.943,0,0,0-.886-1,.953.953,0,0,0-1,.886c-.058.992-.406,3.834-1.311,5.058a.943.943,0,0,0,.754,1.5Z" transform="translate(-19.907 -1.884)"/>
          <path id="Path_179" data-name="Path 179" d="M29.315,42.632a.943.943,0,0,0,.754-1.5c-.907-1.226-1.255-4.067-1.312-5.058a.944.944,0,0,0-1.886.109c.024.421.283,4.176,1.678,6.07a.943.943,0,0,0,.766.382Z" transform="translate(5.188 -1.884)"/>
          <path id="Path_180" data-name="Path 180" d="M51,54.669a.943.943,0,0,0,.943-.915c.176-6.14,2.511-8.072,2.533-8.09a.949.949,0,0,0,.164-1.32.937.937,0,0,0-1.306-.181c-.124.094-3.071,2.383-3.277,9.537a.943.943,0,0,0,.915.969Z" transform="translate(-42.572 -1.884)"/>
          <path id="Path_181" data-name="Path 181" d="M53.89,60.236a3.727,3.727,0,1,0-3.726-3.727,3.727,3.727,0,0,0,3.726,3.727Zm0-5.568a1.841,1.841,0,1,1-1.84,1.841,1.841,1.841,0,0,1,1.84-1.841Z" transform="translate(-45.472 -1.884)"/>
          <path id="Path_182" data-name="Path 182" d="M18.281,54.669a.943.943,0,0,0,.943-.876c.514-7.236-3.473-9.549-3.643-9.644a.943.943,0,0,0-.927,1.642c.143.085,3.111,1.917,2.69,7.869a.943.943,0,0,0,.874,1.007Z" transform="translate(28.867 -1.884)"/>
          <path id="Path_183" data-name="Path 183" d="M20.282,62.218a.943.943,0,0,0,.754-.371,5.894,5.894,0,0,0,1-2.025,5.668,5.668,0,0,0-3.7-7.064,5.28,5.28,0,0,0-4.054.5,6.051,6.051,0,0,0-2.942,6.234.943.943,0,1,0,1.86-.309,4.169,4.169,0,0,1,2-4.28,3.412,3.412,0,0,1,2.619-.333,3.785,3.785,0,0,1,2.4,4.748,4.023,4.023,0,0,1-.684,1.386.943.943,0,0,0,.75,1.513Z" transform="translate(28.773 -1.884)"/>
          <path id="Path_184" data-name="Path 184" d="M20.22,60.284a.752.752,0,0,0,.112-.006l1.063-.125a.943.943,0,1,0-.223-1.873l-1.063.126a.943.943,0,0,0,.11,1.879Z" transform="translate(20.805 -1.884)"/>
          <path id="Path_185" data-name="Path 185" d="M14.388,62.227a.943.943,0,0,0,.328-1.827l-1.131-.418a.943.943,0,0,0-.66,1.768l1.131.419a.943.943,0,0,0,.332.058Z" transform="translate(34.667 -1.884)"/>
        </g>
      </g>
      <g id="Mask_Group_31" data-name="Mask Group 31" class="cls-14" transform="translate(90 514)">
        <g id="doctor_2_2" data-name="doctor (2)" transform="translate(25.267)">
          <g id="Group_142" data-name="Group 142">
            <g id="Group_141" data-name="Group 141">
              <path id="Path_186" data-name="Path 186" d="M13.048,48.195,20.5,45.564a2.431,2.431,0,0,1,1.308-2.838l4.022-1.9V39.5a70.4,70.4,0,0,1-10.466-2.688,3.047,3.047,0,0,1-1.781-1.6,2.957,2.957,0,0,1-.071-2.352,16.557,16.557,0,0,0,.951-6.066V18.533a18.533,18.533,0,1,1,37.067,0V26.8a16.559,16.559,0,0,0,.951,6.066,2.957,2.957,0,0,1-.071,2.352,3.047,3.047,0,0,1-1.781,1.6A70.4,70.4,0,0,1,40.167,39.5v1.324l4.022,1.9A2.431,2.431,0,0,1,45.5,45.564l7.455,2.631a7.178,7.178,0,0,1,4.781,6.758v10.08a.967.967,0,1,1-1.934,0V54.953a5.241,5.241,0,0,0-3.491-4.935L44.45,47.245l-.966,1.288L44.529,50.1a3.053,3.053,0,0,1,.23,2.954l-2.22,4.811h2.927v-1.1a.967.967,0,1,1,1.934,0v1.1h4.2a.967.967,0,0,1,.967.967v6.2A.967.967,0,0,1,51.6,66H41.267a.967.967,0,0,1-.967-.967V62.718l-1.255,2.72a.967.967,0,0,1-1.756-.81L43,52.245a1.107,1.107,0,0,0-.083-1.071L41.5,49.036a.967.967,0,0,1,.031-1.116l2.023-2.7a.5.5,0,0,0-.186-.748l-3.524-1.662-2.1,8a.967.967,0,0,1-1.87-.491l.081-.308a9.247,9.247,0,0,1-5.893,0L33,61.23l1.782-6.779a.967.967,0,1,1,1.87.491L33.935,65.279a.967.967,0,0,1-1.87,0l-5.9-22.466-3.524,1.662a.5.5,0,0,0-.185.748l2.023,2.7a.967.967,0,0,1,.031,1.116L23.08,51.174A1.107,1.107,0,0,0,23,52.245l5.715,12.383a.967.967,0,1,1-1.756.81L21.24,53.055a3.053,3.053,0,0,1,.23-2.954l1.046-1.569-.966-1.288-7.858,2.774A5.241,5.241,0,0,0,10.2,54.953v10.08a.967.967,0,1,1-1.934,0V54.953A7.178,7.178,0,0,1,13.048,48.195ZM42.234,64.066h8.4V59.8H47.4v.067a.967.967,0,1,1-1.934,0V59.8H42.234ZM15.341,34.405a1.091,1.091,0,0,0,.646.58,70.467,70.467,0,0,0,8.343,2.271A14.386,14.386,0,0,1,18.6,25.766V21.031q-1.091.222-2.2.4V26.8a18.592,18.592,0,0,1-1.087,6.777A1.041,1.041,0,0,0,15.341,34.405Zm12.426,6.912,1.66,6.316a7.306,7.306,0,0,0,7.147,0l1.66-6.315V39.182a14.4,14.4,0,0,1-10.466,0v2.135ZM33,38.233A12.48,12.48,0,0,0,45.466,25.767V21.633a.967.967,0,1,1,1.934,0v4.133a14.386,14.386,0,0,1-5.729,11.489,70.526,70.526,0,0,0,8.343-2.271,1.09,1.09,0,0,0,.646-.58,1.041,1.041,0,0,0,.027-.828A18.6,18.6,0,0,1,49.6,26.8V19.526c-.149-.025-.291-.052-.332-.063a34.178,34.178,0,0,1-10.919-5.772,2.078,2.078,0,0,0-2.554-.026,40.069,40.069,0,0,1-9.684,5.2.967.967,0,0,1-.686-1.808,38.117,38.117,0,0,0,9.215-4.946,4.01,4.01,0,0,1,4.928.075,32.892,32.892,0,0,0,10,5.343,16.6,16.6,0,0,0-33.168,1v.938a48.757,48.757,0,0,0,4.974-1.088.967.967,0,0,1,.514,1.864q-.671.185-1.354.351v5.168A12.481,12.481,0,0,0,33,38.233Z" transform="translate(-8.267)"/>
            </g>
          </g>
          <g id="Group_144" data-name="Group 144" transform="translate(28.933 19.633)">
            <g id="Group_143" data-name="Group 143">
              <path id="Path_187" data-name="Path 187" d="M25.767,19.633h2.067a.967.967,0,0,1,0,1.934H25.767a.967.967,0,0,1,0-1.934Z" transform="translate(-24.8 -19.633)"/>
            </g>
          </g>
          <g id="Group_146" data-name="Group 146" transform="translate(16.533 19.633)">
            <g id="Group_145" data-name="Group 145">
              <path id="Path_188" data-name="Path 188" d="M38.167,19.633h2.067a.967.967,0,0,1,0,1.934H38.167a.967.967,0,1,1,0-1.934Z" transform="translate(-37.2 -19.633)"/>
            </g>
          </g>
          <g id="Group_148" data-name="Group 148" transform="translate(5.167 55.8)">
            <g id="Group_147" data-name="Group 147">
              <path id="Path_189" data-name="Path 189" d="M46.433,58.383H48.05V56.766a.967.967,0,0,1,1.934,0v1.616H51.6a.967.967,0,0,1,0,1.934H49.983v1.616a.967.967,0,0,1-1.934,0V60.316H46.433a.967.967,0,1,1,0-1.934Z" transform="translate(-45.466 -55.8)"/>
            </g>
          </g>
          <g id="Group_150" data-name="Group 150" transform="translate(29.966 22.733)">
            <g id="Group_149" data-name="Group 149">
              <path id="Path_190" data-name="Path 190" d="M26.8,22.733a.967.967,0,0,1,.967.967v1.033a.967.967,0,0,1-1.934,0V23.7A.967.967,0,0,1,26.8,22.733Z" transform="translate(-25.833 -22.733)"/>
            </g>
          </g>
          <g id="Group_152" data-name="Group 152" transform="translate(17.567 22.733)">
            <g id="Group_151" data-name="Group 151">
              <path id="Path_191" data-name="Path 191" d="M39.2,22.733a.967.967,0,0,1,.967.967v1.033a.967.967,0,0,1-1.934,0V23.7A.967.967,0,0,1,39.2,22.733Z" transform="translate(-38.233 -22.733)"/>
            </g>
          </g>
          <g id="Group_154" data-name="Group 154" transform="translate(19.116 28.413)">
            <g id="Group_153" data-name="Group 153">
              <path id="Path_192" data-name="Path 192" d="M28.35,28.413h9.3a.967.967,0,0,1,.967.967A5.383,5.383,0,0,1,33,34.48a5.383,5.383,0,0,1-5.617-5.1A.967.967,0,0,1,28.35,28.413ZM33,32.546a3.676,3.676,0,0,0,3.508-2.2H29.492A3.676,3.676,0,0,0,33,32.546Z" transform="translate(-27.383 -28.413)"/>
            </g>
          </g>
        </g>
      </g>
      <g id="Mask_Group_32" data-name="Mask Group 32" class="cls-14" transform="translate(90 596)">
        <g id="doctor_3_2" data-name="doctor (3)" transform="translate(21.77 0)">
          <g id="Group_155" data-name="Group 155">
            <path id="Path_193" data-name="Path 193" d="M37.318,32.329a5.446,5.446,0,0,1-3.875-1.606.967.967,0,0,1,1.367-1.367,3.545,3.545,0,0,0,5.017,0,.967.967,0,1,1,1.367,1.367A5.445,5.445,0,0,1,37.318,32.329Z" transform="translate(-13.406 0)"/>
            <path id="Path_194" data-name="Path 194" d="M31.517,24.089a.967.967,0,0,1-.967-.967V20.355a.967.967,0,1,1,1.934,0v2.767A.967.967,0,0,1,31.517,24.089Z" transform="translate(-1.804 0)"/>
            <path id="Path_195" data-name="Path 195" d="M43.119,24.089a.967.967,0,0,1-.967-.967V20.355a.967.967,0,1,1,1.934,0v2.767A.967.967,0,0,1,43.119,24.089Z" transform="translate(-25.008 0)"/>
            <path id="Path_196" data-name="Path 196" d="M37.318,26.855H35.862a.967.967,0,0,1,0-1.934h.1l-1.015-2.951a.967.967,0,0,1,1.828-.629l1.456,4.232a.967.967,0,0,1-.914,1.281Z" transform="translate(-11.95 0)"/>
            <path id="Path_197" data-name="Path 197" d="M5.736,56.4a.967.967,0,0,1-.967-.967V45.761a7.42,7.42,0,0,1,7.412-7.412h1.289a8.635,8.635,0,0,1,.258-8.633A4.841,4.841,0,0,1,9.99,25.008V23.569A4.824,4.824,0,0,1,11.7,19.886V12.939a11.62,11.62,0,0,1,14-11.372A12.2,12.2,0,0,1,31.7,0h1.724A12.252,12.252,0,0,1,45.666,12.238v7.648a4.824,4.824,0,0,1,1.707,3.682v1.439a4.839,4.839,0,0,1-4.834,4.834H41.07a11.841,11.841,0,0,1-3.024,4.4,7.438,7.438,0,0,1,5.264,4.11h1.872a7.368,7.368,0,0,1,1.756.212V32.742a1.612,1.612,0,0,1,1.547-1.608V29.391A1.613,1.613,0,0,1,50.1,27.779H51V18.691a.967.967,0,0,1,1.934,0v9.088h.9a1.613,1.613,0,0,1,1.611,1.611v1.743a1.612,1.612,0,0,1,1.547,1.608v1.869h.486a3.756,3.756,0,0,1,3.752,3.752v6.676a3.756,3.756,0,0,1-3.752,3.752H54.544v1.1a.967.967,0,0,1-1.934,0v-1.1H51.321v6.7H52.61V54.4a.967.967,0,0,1,1.934,0v1.1h.709a1.613,1.613,0,0,1,1.611,1.611v2.063a1.613,1.613,0,0,1-1.611,1.611H52.594v2.965A2.259,2.259,0,0,1,50.338,66H7.026A2.259,2.259,0,0,1,4.77,63.744v-3.8a.967.967,0,0,1,1.934,0v3.8a.323.323,0,0,0,.322.322H50.338a.323.323,0,0,0,.322-.322V60.779H48.678a1.613,1.613,0,0,1-1.611-1.611V57.105a1.613,1.613,0,0,1,1.611-1.611h.709v-6.7h-2.9a.967.967,0,0,1,0-1.934h.451V40.572a5.441,5.441,0,0,0-1.756-.29H43.915a7.418,7.418,0,0,1,.1,1.226v6.84a4.189,4.189,0,1,1-1.934,0v-6.84a5.474,5.474,0,0,0-.14-1.226h-6L30.077,50.436a1.611,1.611,0,0,1-2.79,0L21.42,40.282H15.363a5.474,5.474,0,0,0-.14,1.226v6.418a4.842,4.842,0,0,1,3.867,4.737v7.93a.967.967,0,0,1-.967.967H16.33a.967.967,0,0,1,0-1.934h.827V52.662a2.9,2.9,0,0,0-5.8,0v6.964h.827a.967.967,0,1,1,0,1.934H10.389a.967.967,0,0,1-.967-.967v-7.93a4.842,4.842,0,0,1,3.867-4.737V41.508a7.418,7.418,0,0,1,.1-1.226H12.182A5.485,5.485,0,0,0,6.7,45.761V55.43a.966.966,0,0,1-.967.967ZM53.512,29.713H50.419v1.418h3.094Zm-.395,9.963a.653.653,0,0,0,0,1.05,1.217,1.217,0,0,1,0,1.948.653.653,0,0,0,0,1.052,1.217,1.217,0,0,1,0,1.947.645.645,0,0,0-.266.526.659.659,0,0,0,.658.658h3.969A1.82,1.82,0,0,0,59.3,45.039V38.363a1.82,1.82,0,0,0-1.818-1.818H53.509a.658.658,0,0,0-.658.658.645.645,0,0,0,.267.526,1.217,1.217,0,0,1,0,1.947ZM49,57.428v1.418h5.93V57.428Zm-.129-10.57h2.134A2.568,2.568,0,0,1,51.4,44.7a2.549,2.549,0,0,1-.415-.937H48.872Zm0-5.027h2.439c.027-.044.055-.087.085-.129a2.593,2.593,0,0,1,0-3,2.566,2.566,0,0,1-.477-1.5,2.594,2.594,0,0,1,2.591-2.591h1.55V33.064H48.872ZM40.8,52.423a2.256,2.256,0,1,0,2.256-2.256A2.259,2.259,0,0,0,40.8,52.423Zm1.744-24.515a2.9,2.9,0,0,0,2.9-2.9V23.569a2.9,2.9,0,0,0-2.9-2.9H41.88v4.876a11.805,11.805,0,0,1-.238,2.364ZM41.88,17.066v1.668h.659a4.829,4.829,0,0,1,1.193.149V12.238a10.316,10.316,0,0,0-10.3-10.3H31.7a10.252,10.252,0,0,0-8.111,3.948.967.967,0,1,1-1.521-1.194A12.442,12.442,0,0,1,23.39,3.256h-.074a9.7,9.7,0,0,0-9.684,9.684v5.945a4.824,4.824,0,0,1,1.193-.149h.659V17.066a6.134,6.134,0,0,1,4.017-5.75,12.24,12.24,0,0,1,.379-2.245.967.967,0,1,1,1.868.5,10.293,10.293,0,0,0-.268,1.376c.042,0,.084,0,.126,0h14.15a6.13,6.13,0,0,1,6.123,6.123Zm-1.934,8.478V17.066a4.194,4.194,0,0,0-4.189-4.189H21.607a4.194,4.194,0,0,0-4.189,4.189v8.478a9.872,9.872,0,0,0,9.861,9.861h2.807A9.872,9.872,0,0,0,39.947,25.545Zm1.131,12.8a5.474,5.474,0,0,0-4.472-2.319H35.48a11.706,11.706,0,0,1-2.351.91v1.409Zm-12.4,10.637,1.908-3.3.9-1.56a14,14,0,0,1-5.618,0Zm-4.2-7.277a11.91,11.91,0,0,0,8.409,0l.824-1.426H32.162a.967.967,0,0,1-.967-.967v-2.03c-.366.034-.736.054-1.11.054H27.279c-.375,0-.745-.02-1.11-.054v2.03a.967.967,0,0,1-.967.967H23.654Zm-2.5-3.359h2.256V36.94a11.709,11.709,0,0,1-2.351-.91H20.7a5.475,5.475,0,0,0-4.472,2.319Zm-7.067-1.46a7.421,7.421,0,0,1,4.4-2.658,11.841,11.841,0,0,1-3.015-4.388h-.263a6.7,6.7,0,0,0-1.12,7.046Zm-.087-8.98h.9a11.805,11.805,0,0,1-.238-2.364V20.668h-.659a2.9,2.9,0,0,0-2.9,2.9v1.439A2.9,2.9,0,0,0,14.824,27.908Z" transform="translate(-4.77 0)"/>
          </g>
        </g>
      </g>
    </g>
    <rect id="white_filter" data-name="white filter" class="cls-15" width="473" height="318" transform="translate(0 508)"/>
  </g>
</svg>
