<svg xmlns="http://www.w3.org/2000/svg" xmlns:xlink="http://www.w3.org/1999/xlink" width="100" height="66" viewBox="0 0 100 66">
  <defs>
    <style>
      .cls-1 {
        fill: #fff;
      }

      .cls-2 {
        clip-path: url(#clip-path);
      }
    </style>
    <clipPath id="clip-path">
      <rect id="Rectangle_26" data-name="Rectangle 26" class="cls-1" width="100" height="66" transform="translate(34 281)"/>
    </clipPath>
  </defs>
  <g id="Mask_Group_3" data-name="Mask Group 3" class="cls-2" transform="translate(-34 -281)">
    <g id="ophthalmologist" transform="translate(50.569 281)">
      <g id="Group_13" data-name="Group 13">
        <g id="Group_12" data-name="Group 12">
          <path id="Path_23" data-name="Path 23" d="M48.156,62.625,38.9,59.572V58.21H36.754v2l-1.605,6.355L30.805,61.4H27.647L23.3,66.564l-1.6-6.355v-2H19.549v1.362L10.3,62.625a11.721,11.721,0,0,0-7.927,9.184L0,85.888H58.453L56.082,71.809A11.714,11.714,0,0,0,48.156,62.625ZM30.3,83.759V66.727H28.152V83.759H12.135l.957-9.474-2.14-.212L9.974,83.76H2.54l1.953-11.6a9.591,9.591,0,0,1,6.486-7.514l6.42-2.118V72.2a4.3,4.3,0,1,0,2.151,0V61.816l.314-.1,2.383,9.435,6.409-7.614H29.8l6.41,7.614,2.383-9.435.314.1v8.511L34.83,72.344a4.228,4.228,0,0,0-2.377,3.808v1.22a4.284,4.284,0,0,0,4.3,4.258h1.075V79.5H36.754A2.142,2.142,0,0,1,34.6,77.372v-1.22a2.114,2.114,0,0,1,1.188-1.9l4.188-2.073,4.188,2.073a2.115,2.115,0,0,1,1.188,1.9v1.22A2.142,2.142,0,0,1,43.205,79.5H42.13V81.63h1.075A4.288,4.288,0,0,0,46,80.583l.32,3.175ZM18.474,74.178a2.129,2.129,0,1,1-2.151,2.129A2.142,2.142,0,0,1,18.474,74.178ZM48.48,83.759,47.5,74.072l-.52.051a4.255,4.255,0,0,0-1.852-1.78l-4.074-2.016v-7.8l6.422,2.118a9.593,9.593,0,0,1,6.486,7.514l1.952,11.6Z" transform="translate(0 -19.888)"/>
          <path id="Path_24" data-name="Path 24" d="M21.2,28.828a11.614,11.614,0,0,0,2.989,4.995l4.194,4.151a5.37,5.37,0,0,0,3.8,1.56h5.04a5.37,5.37,0,0,0,3.8-1.56l4.194-4.151A11.614,11.614,0,0,0,48.2,28.828,5.272,5.272,0,0,0,50.8,19.307h.033V16.114a16.13,16.13,0,0,0-32.258,0v3.194H18.6A5.272,5.272,0,0,0,21.2,28.828Zm25.331-3.286a9.472,9.472,0,0,1-2.834,6.776L39.5,36.468a3.26,3.26,0,0,1-2.281.936H32.18a3.262,3.262,0,0,1-2.281-.936l-4.194-4.151a9.47,9.47,0,0,1-2.834-6.775V20.372h7.952a13.94,13.94,0,0,0,7.1-1.935,13.947,13.947,0,0,0,7.1,1.935h1.5Zm4.3-1.977a3.19,3.19,0,0,1-2.2,3.013c.03-.343.051-.687.051-1.036V20.568A3.192,3.192,0,0,1,50.83,23.565ZM20.722,16.114a13.979,13.979,0,0,1,27.957,0V18.35a5.424,5.424,0,0,0-1.075-.108H45.028a11.787,11.787,0,0,1-6.506-1.95l-.6-.394-.6.394a11.781,11.781,0,0,1-6.505,1.95H21.8a5.424,5.424,0,0,0-1.075.108V16.114Zm0,4.454v4.974c0,.348.02.693.051,1.036a3.163,3.163,0,0,1-.051-6.01Z" transform="translate(-5.474 -0.146)"/>
          <path id="Path_25" data-name="Path 25" d="M59.969.146V2.275H84.7V44.856H76.1v2.129H86.851V.146Z" transform="translate(-19.99 -0.146)"/>
          <path id="Path_26" data-name="Path 26" d="M71.26,20.469h7.527V18.34H73.41V16.21h5.376V14.081H73.41V11.952h5.376V9.823H71.26Z" transform="translate(-23.753 -3.436)"/>
          <path id="Path_27" data-name="Path 27" d="M90.077,40.985V38.856H82.55V49.5h7.527V47.372H84.7V45.243h5.376V43.114H84.7V40.985Z" transform="translate(-27.517 -13.307)"/>
          <path id="Path_28" data-name="Path 28" d="M65.883,49.565h-4.3v2.129h6.452V45.307H65.883Z" transform="translate(-20.527 -15.501)"/>
        </g>
      </g>
    </g>
  </g>
</svg>
