<svg id="Layer_5" enable-background="new 0 0 64 64" height="512" viewBox="0 0 64 64" width="512" xmlns="http://www.w3.org/2000/svg"><g><path d="m29 43h-22c-1.103 0-2 .897-2 2v8c0 1.103.897 2 2 2h22c1.103 0 2-.897 2-2v-8c0-1.103-.897-2-2-2zm0 2 .001 4h-10.587l-3.522-3.522-2.844 3.792-1.513-2.27h-3.535v-2zm-22 8v-4h2.465l2.487 3.73 3.156-4.208 2.478 2.478h11.416v2z"/><path d="m5 57h2v2h-2z"/><path d="m13 57h2v2h-2z"/><path d="m9 57h2v2h-2z"/><path d="m44 7h-2c0 1.103-.897 2-2 2s-2-.897-2-2h-2c0 2.206 1.794 4 4 4s4-1.794 4-4z"/><path d="m45 51h3c1.302 0 2.402-.839 2.816-2h12.184v-20.518c0-4.846-3.247-9.186-7.896-10.553l-9.341-2.748-.523-1.402c3.994-1.95 6.76-6.042 6.76-10.779v-2.001l-24 .021v1.98c0 4.737 2.766 8.829 6.761 10.779l-.523 1.402-9.341 2.748c-4.65 1.368-7.897 5.708-7.897 10.553v10.518h-11c-2.757 0-5 2.243-5 5v14c0 2.757 2.243 5 5 5h24c1.627 0 3.061-.793 3.974-2h7.026v-2h19c1.654 0 3-1.346 3-3s-1.346-3-3-3h-15c-.552 0-1-.448-1-1s.448-1 1-1zm16-22.518v18.518h-6v-16.056c0-3.289 1.182-6.39 3.326-8.843 1.663 1.656 2.674 3.939 2.674 6.381zm-4.243-7.626c-2.424 2.807-3.757 6.341-3.757 10.088v16.056h-2.184c-.414-1.161-1.514-2-2.816-2h-5c-.552 0-1-.448-1-1v-7.511l6.8-5.288c1.398-1.088 2.2-2.728 2.2-4.5 0-2.242-1.304-4.18-3.19-5.11.702-.752 1.309-1.592 1.768-2.51l.302-.603 4.659 1.37c.795.234 1.537.58 2.218 1.008zm-20.056 2.144h.352c.988 0 1.918.385 2.617 1.084l1.33 1.33 1.33-1.33c.699-.699 1.629-1.084 2.617-1.084h.352c2.041 0 3.701 1.66 3.701 3.701 0 1.15-.521 2.215-1.429 2.921l-6.571 5.111-6.571-5.111c-.908-.706-1.429-1.771-1.429-2.921 0-2.041 1.66-3.701 3.701-3.701zm-6.701-19.982 20-.017c-.001 5.513-4.486 9.999-10 9.999-5.508 0-9.99-4.477-10-9.982zm5.763 13.8.86-2.31c1.073.315 2.204.492 3.377.492s2.304-.177 3.377-.492l.86 2.31 3.693 1.086-.141.282c-.544 1.088-1.33 2.052-2.27 2.825-.074-.003-.146-.011-.22-.011h-.352c-1.483 0-2.881.563-3.947 1.587-1.066-1.024-2.464-1.587-3.947-1.587h-.352c-.64 0-1.254.111-1.829.306-1.118-.817-2.04-1.878-2.661-3.12l-.141-.282zm-16.763 11.664c0-2.442 1.011-4.725 2.674-6.381 2.144 2.454 3.326 5.554 3.326 8.843v8.056h-6zm14 29.518c0 1.654-1.346 3-3 3h-24c-1.654 0-3-1.346-3-3v-14c0-1.654 1.346-3 3-3h24c1.654 0 3 1.346 3 3zm6 1h-4.101c.066-.323.101-.658.101-1v-1h4zm6-4h15c.552 0 1 .448 1 1s-.448 1-1 1h-19v-2h-6v-11c0-2.757-2.243-5-5-5h-3v-8.056c0-3.747-1.333-7.281-3.757-10.088.681-.428 1.423-.774 2.218-1.008l4.659-1.37.302.603c.632 1.263 1.509 2.382 2.569 3.301-1.217 1.046-1.991 2.592-1.991 4.319 0 1.772.802 3.412 2.2 4.5l6.8 5.288v7.511c0 1.654 1.346 3 3 3h5c.552 0 1 .448 1 1s-.448 1-1 1h-3c-1.654 0-3 1.346-3 3s1.346 3 3 3z"/></g></svg>