<svg height="512" viewBox="0 0 128 128" width="512" xmlns="http://www.w3.org/2000/svg"><path d="m109.786 52.393-2.241-2.242 1-1a1.75 1.75 0 0 0 0-2.474l-11.435-11.441a1.8 1.8 0 0 0 -2.474 0l-1 1-17.481-17.474a1.748 1.748 0 0 0 -2.474 0l-.378.377-.626-.626a4.385 4.385 0 0 0 -6.2 6.2l.625.625-.378.378a1.748 1.748 0 0 0 0 2.474l12.162 12.164-23.422 23.421-.725-.724a1.749 1.749 0 0 0 -2.452-.023l-33.234 32.043a9.129 9.129 0 0 0 6.333 15.7h.087a9.06 9.06 0 0 0 6.487-2.792l32.04-33.236a1.75 1.75 0 0 0 -.023-2.452l-.724-.725 21.181-21.18 10.2 10.2a1.748 1.748 0 0 0 2.474 0l1-1 2.24 2.24a6.669 6.669 0 1 0 9.432-9.43zm-40.835-30.153a.885.885 0 1 1 1.249-1.252l.626.626-1.252 1.251zm5.589.612.378-.377 16.24 16.24-4.481 4.485-16.241-16.245zm-45.1 82.7a5.586 5.586 0 0 1 -4 1.723h-.053a5.629 5.629 0 0 1 -3.905-9.68l32-30.851 6.811 6.811zm28.5-39.3 23.42-23.423 2.84 2.842-.317.316-23.103 23.105zm28.971-18.341.258-.258.745-.745 7.958-7.96 8.963 8.963-8.963 8.963zm20.4 11.438a3.173 3.173 0 0 1 -4.483 0l-2.241-2.241 4.482-4.482 2.242 2.241a3.174 3.174 0 0 1 .001 4.482z"/></svg>