<svg id="Capa_1" enable-background="new 0 0 511.849 511.849" height="512" viewBox="0 0 511.849 511.849" width="512" xmlns="http://www.w3.org/2000/svg"><g><path d="m160.972 90.616c0 4.142 3.357 7.5 7.5 7.5h40.758c4.143 0 7.5-3.358 7.5-7.5s-3.357-7.5-7.5-7.5h-40.758c-4.143 0-7.5 3.358-7.5 7.5z"/><path d="m197.891 66.713c4.143 0 7.5-3.358 7.5-7.5s-3.357-7.5-7.5-7.5h-18.08c-4.143 0-7.5 3.358-7.5 7.5s3.357 7.5 7.5 7.5z"/><path d="m143.302 228.601-10.445 19.966c-1.846 3.529-1.717 7.669.346 11.076s5.672 5.44 9.654 5.44h27.5c6.45 0 12.313-2.547 16.648-6.681 4.336 4.135 10.198 6.681 16.648 6.681h27.5c3.982 0 7.592-2.034 9.654-5.44s2.191-7.547.346-11.077l-10.446-19.965c-4.18-7.991-12.379-12.955-21.396-12.955h-5.657c-6.45 0-12.313 2.547-16.648 6.681-4.336-4.135-10.198-6.681-16.648-6.681h-5.657c-9.02 0-17.22 4.964-21.399 12.955zm60.351 2.045h5.657c3.416 0 6.521 1.88 8.105 4.908l7.603 14.529h-21.365c-5.045 0-9.148-4.104-9.148-9.148v-1.141c0-5.044 4.103-9.148 9.148-9.148zm-47.06 4.908c1.584-3.027 4.689-4.908 8.106-4.908h5.657c5.045 0 9.148 4.104 9.148 9.148v1.141c0 5.044-4.104 9.148-9.148 9.148h-21.365z"/><path d="m31.549 406.871c-3.423-2.336-8.088-1.457-10.424 1.963-13.82 20.235-21.125 43.869-21.125 68.346v26.949c0 4.142 3.357 7.5 7.5 7.5s7.5-3.358 7.5-7.5v-26.949c0-21.446 6.401-42.154 18.512-59.885 2.336-3.421 1.457-8.087-1.963-10.424z"/><path d="m288.486 383.987c0 52.675 42.854 95.529 95.528 95.529s95.529-42.854 95.529-95.529-42.854-95.529-95.529-95.529-95.528 42.854-95.528 95.529zm176.058 0c0 44.404-36.125 80.529-80.529 80.529-44.403 0-80.528-36.125-80.528-80.529s36.125-80.529 80.528-80.529c44.404 0 80.529 36.125 80.529 80.529z"/><path d="m343.641 358.563c4.143 0 7.5-3.358 7.5-7.5v-5.538c0-4.142-3.357-7.5-7.5-7.5s-7.5 3.358-7.5 7.5v5.538c0 4.142 3.357 7.5 7.5 7.5z"/><path d="m424.39 358.563c4.143 0 7.5-3.358 7.5-7.5v-5.538c0-4.142-3.357-7.5-7.5-7.5s-7.5 3.358-7.5 7.5v5.538c0 4.142 3.357 7.5 7.5 7.5z"/><path d="m419.076 381.807h-70.122c-7.065 0-12.813 5.748-12.813 12.813v7.466c0 26.398 21.477 47.875 47.874 47.875 26.398 0 47.875-21.477 47.875-47.875v-7.466c0-7.065-5.748-12.813-12.814-12.813zm-51.306 48.842c4.347-4.064 10.074-6.377 16.244-6.377s11.901 2.312 16.248 6.375c-4.797 2.739-10.34 4.314-16.248 4.314-5.906-.001-11.448-1.574-16.244-4.312zm49.12-28.563c0 6.803-2.077 13.13-5.631 18.38-7.192-7.052-16.979-11.193-27.244-11.193-10.266 0-20.042 4.154-27.233 11.209-3.56-5.253-5.641-11.585-5.641-18.395v-5.279h65.749z"/></g><path d="m455.143 277.759c-3.438-2.307-8.099-1.39-10.406 2.05s-1.39 8.099 2.051 10.407c31.347 21.028 50.062 56.083 50.062 93.771 0 62.217-50.617 112.833-112.834 112.833s-112.833-50.617-112.833-112.833 50.616-112.833 112.833-112.833c12.271 0 24.341 1.959 35.874 5.824 3.926 1.316 8.179-.801 9.494-4.729 1.316-3.927-.801-8.178-4.729-9.494-13.072-4.38-26.745-6.602-40.64-6.602-55.209 0-102.352 35.182-120.197 84.302-1.453-1.939-3.347-3.54-5.571-4.611l-5.16-2.484c-2.706-1.303-5.692-1.744-8.602-1.36v-21.324c23.823-18.598 38.969-46.994 40.366-78.055 18.257-.849 32.85-15.964 32.85-34.428 0-7.155-2.193-13.807-5.94-19.322l4.471-39.863c3.546-31.61-11.56-62.981-38.482-79.922l-.104-.066c-7.14-16.867-18.839-31.282-33.979-41.79-16.216-11.253-35.257-17.202-55.063-17.202s-38.848 5.949-55.063 17.204c-15.141 10.508-26.84 24.924-33.98 41.791l-.104.066c-26.923 16.94-42.028 48.311-38.482 79.921l4.471 39.863c-3.747 5.515-5.94 12.167-5.94 19.322 0 18.509 14.666 33.652 32.987 34.431.355 8.416 1.717 16.772 4.082 24.897.953 3.278 3.948 5.407 7.198 5.407.693 0 1.398-.097 2.099-.301 3.977-1.157 6.263-5.319 5.105-9.296-2.38-8.18-3.587-16.629-3.587-25.111v-13.742-82.28c19.465-18.421 24.703-47.336 12.586-71.573-.689-1.377-1.654-2.58-2.812-3.551 14.259-25.847 41.259-42.048 71.44-42.048s57.182 16.201 71.441 42.047c-1.159.971-2.124 2.174-2.813 3.553-12.118 24.237-6.877 53.156 12.591 71.577l.109 72.221.035 23.497c0 37.989-24.055 72.047-59.857 84.749l-.74.262c-13.704 4.862-28.786 4.831-42.469-.087-17.512-6.293-32.428-17.666-43.136-32.887-2.382-3.387-7.059-4.203-10.449-1.819-3.388 2.383-4.202 7.062-1.818 10.45 6.044 8.591 13.246 16.12 21.375 22.447v20.963c-2.911-.384-5.897.058-8.603 1.36l-5.16 2.485c-3.869 1.863-6.787 5.294-8.005 9.412-.521 1.76-.693 3.581-.567 5.378l-20.786 8.481c-.019.008-.037.015-.056.023l-14.286 5.829c-10.807 4.409-20.918 10.361-30.055 17.692-3.23 2.592-3.748 7.313-1.155 10.543 1.481 1.846 3.658 2.807 5.854 2.807 1.646 0 3.305-.54 4.688-1.651 8.008-6.425 16.867-11.641 26.333-15.503l4.06-1.656v54.309c0 3.567 2.513 6.641 6.009 7.35l10.147 2.059-3.167 27.44c-.233 2.022.365 4.052 1.658 5.625l28.716 34.909c1.482 1.803 3.631 2.736 5.796 2.735 1.677 0 3.364-.56 4.761-1.708 3.199-2.631 3.659-7.357 1.027-10.557l-26.692-32.449 3.592-31.117c.447-3.869-2.142-7.436-5.959-8.21l-10.888-2.209v-54.298l16.686-6.808 16.498 27.091-.446 33.189c-.01.71.082 1.419.271 2.104l22.033 79.475c.921 3.321 3.937 5.498 7.224 5.498.663 0 1.337-.089 2.008-.274 3.602-.999 5.849-4.463 5.441-8.064l3.406-66.781 5.04-14.887h20.764l5.04 14.887 3.362 67.222.003.002c-.183 3.438 2.029 6.662 5.483 7.62.671.186 1.345.274 2.008.274 3.286 0 6.303-2.177 7.224-5.498l22.033-79.475c.189-.685.281-1.394.271-2.104l-.446-33.189 12.888-21.163c-.488 4.53-.745 9.128-.745 13.786 0 15.613 2.819 30.579 7.965 44.422-2.565 1.445-4.126 4.32-3.771 7.389l3.592 31.117-26.692 32.449c-2.632 3.199-2.172 7.925 1.027 10.557 1.396 1.148 3.083 1.708 4.761 1.708 2.165 0 4.313-.933 5.796-2.735l28.716-34.909c1.293-1.572 1.892-3.603 1.658-5.625l-1.559-13.509c22.946 34.321 62.046 56.97 106.34 56.97 70.488 0 127.834-57.346 127.834-127.833.001-42.696-21.198-82.408-56.705-106.227zm-362.753-63.279v3.102c-9.995-.811-17.884-9.189-17.884-19.388s7.889-18.577 17.884-19.388zm2.666-91.367c-1.69 1.425-2.666 3.523-2.666 5.734v34.919c-4.696.214-9.149 1.371-13.176 3.287l-3.333-29.715c-2.908-25.927 9.481-51.659 31.564-65.554l.852-.536c7.115 18.229 1.974 39.039-13.241 51.865zm189.895 94.463-.02-13.173-.039-25.594c9.959.847 17.808 9.21 17.808 19.385.001 10.155-7.817 18.508-17.749 19.382zm-16.041-146.328.852.536c22.083 13.895 34.473 39.626 31.564 65.554l-3.333 29.715c-4.011-1.909-8.446-3.066-13.123-3.286l-.053-34.931c-.003-2.207-.979-4.301-2.666-5.723-15.215-12.826-20.356-33.637-13.241-51.865zm-121.038 249.519c4.468 2.38 9.124 4.459 13.956 6.196 8.519 3.062 17.473 4.592 26.43 4.592 8.849 0 17.699-1.495 26.126-4.485l.74-.262c4.992-1.771 9.786-3.9 14.361-6.347v17.478l-40.807 18.041-40.807-18.041v-17.172zm10.846 111.912c-.22.649-.35 1.326-.386 2.01l-1.182 22.411-9.265-33.418.345-25.682c.736-.272 1.458-.595 2.14-1.021l4.574-2.86c-.202 3.763.609 7.554 2.414 10.942l5.664 10.625c.278.522.603 1.006.951 1.469zm-13.304-50.292-19.899-32.677c-.023-.037-.058-.094-.026-.198.031-.104.09-.132.129-.151l5.16-2.485c.033-.016.069-.024.105-.024.034 0 .069.007.102.021h-.001l41.726 18.447zm61.348 15.618-4.595 8.619h-26.977l-4.596-8.619c-.783-1.47-.905-3.211-.334-4.776l4.109-11.256 14.309-8.947 14.309 8.947 4.109 11.256c.571 1.564.45 3.305-.334 4.776zm13.445 59.096-1.182-22.411c-.036-.685-.166-1.361-.386-2.01l-5.256-15.524c.349-.463.673-.948.951-1.47l5.663-10.625c1.806-3.387 2.617-7.178 2.415-10.941l4.573 2.859c.682.426 1.404.75 2.141 1.022l.345 25.682zm31.637-107.392-19.9 32.678-27.295-17.067 41.725-18.447c.066-.029.142-.029.206.003l5.16 2.484c.039.019.099.047.13.152.029.105-.005.161-.026.197z"/></svg>